
<svg xmlns="http://www.w3.org/2000/svg" version="1.1" xmlns:xlink="http://www.w3.org/1999/xlink" preserveAspectRatio="none" x="0px" y="0px" width="403px" height="312px" viewBox="3 0 403 312">
<defs>
<linearGradient id="Gradient_1" gradientUnits="userSpaceOnUse" x1="483.3375" y1="588.4250000000001" x2="486.9625" y2="-300.125" spreadMethod="pad">
<stop  offset="0.39215686274509803%" stop-color="#646A82"/>

<stop  offset="49.01960784313726%" stop-color="#A5A6A7"/>

<stop  offset="100%" stop-color="#646A82"/>
</linearGradient>

<linearGradient id="Gradient_2" gradientUnits="userSpaceOnUse" x1="117.83749999999999" y1="159.6" x2="120.2625" y2="159.6" spreadMethod="pad">
<stop  offset="0%" stop-color="#02A901"/>

<stop  offset="100%" stop-color="#006600"/>
</linearGradient>

<linearGradient id="Gradient_3" gradientUnits="userSpaceOnUse" x1="267.05" y1="500.1" x2="361.05" y2="-170.30000000000004" spreadMethod="pad">
<stop  offset="0%" stop-color="#017E01"/>

<stop  offset="100%" stop-color="#025C01"/>
</linearGradient>

<linearGradient id="Gradient_4" gradientUnits="userSpaceOnUse" x1="355.875" y1="441.11249999999995" x2="430.82500000000005" y2="461.1875" spreadMethod="pad">
<stop  offset="0%" stop-color="#E0996B"/>

<stop  offset="100%" stop-color="#EABB9D"/>
</linearGradient>

<linearGradient id="Gradient_5" gradientUnits="userSpaceOnUse" x1="0" y1="453.7" x2="365.3" y2="453.7" spreadMethod="pad">
<stop  offset="0%" stop-color="#E9B796"/>

<stop  offset="100%" stop-color="#EFCCB0"/>
</linearGradient>

<linearGradient id="Gradient_6" gradientUnits="userSpaceOnUse" x1="19.89999999999999" y1="22.05" x2="218" y2="22.05" spreadMethod="pad">
<stop  offset="0%" stop-color="#AE7148"/>

<stop  offset="100%" stop-color="#E2B693"/>
</linearGradient>

<linearGradient id="Gradient_7" gradientUnits="userSpaceOnUse" x1="25" y1="20.1" x2="192.4" y2="20.1" spreadMethod="pad">
<stop  offset="0%" stop-color="#E9B796"/>

<stop  offset="100%" stop-color="#EFCCB0"/>
</linearGradient>

<linearGradient id="Gradient_8" gradientUnits="userSpaceOnUse" x1="22.5" y1="5" x2="194.9" y2="5" spreadMethod="pad">
<stop  offset="0%" stop-color="#E9B796"/>

<stop  offset="100%" stop-color="#EFCCB0"/>
</linearGradient>

<linearGradient id="Gradient_9" gradientUnits="userSpaceOnUse" x1="345.55" y1="302.3" x2="516.45" y2="324.59999999999997" spreadMethod="pad">
<stop  offset="0%" stop-color="#8E5E3E"/>

<stop  offset="100%" stop-color="#DDA580"/>
</linearGradient>

<linearGradient id="Gradient_10" gradientUnits="userSpaceOnUse" x1="362.82500000000005" y1="157.65" x2="460.875" y2="157.65" spreadMethod="pad">
<stop  offset="0%" stop-color="#DB8B57"/>

<stop  offset="100%" stop-color="#E8B18E"/>
</linearGradient>

<linearGradient id="Gradient_11" gradientUnits="userSpaceOnUse" x1="-6.200000000000017" y1="240.95" x2="414.20000000000005" y2="240.95" spreadMethod="pad">
<stop  offset="0%" stop-color="#BA7D56"/>

<stop  offset="100%" stop-color="#E2B693"/>
</linearGradient>

<linearGradient id="Gradient_12" gradientUnits="userSpaceOnUse" x1="363.17499999999995" y1="171.8" x2="458.725" y2="171.8" spreadMethod="pad">
<stop  offset="0%" stop-color="#DB8B57"/>

<stop  offset="100%" stop-color="#E8B18E"/>
</linearGradient>

<linearGradient id="Gradient_13" gradientUnits="userSpaceOnUse" x1="4.900000000000006" y1="35.5" x2="360.4" y2="35.5" spreadMethod="pad">
<stop  offset="0%" stop-color="#E9B796"/>

<stop  offset="100%" stop-color="#EFCCB0"/>
</linearGradient>

<linearGradient id="Gradient_14" gradientUnits="userSpaceOnUse" x1="-0.025000000000005684" y1="26.25" x2="74.125" y2="26.25" spreadMethod="pad">
<stop  offset="0%" stop-color="#111111"/>

<stop  offset="100%" stop-color="#515151"/>
</linearGradient>

<linearGradient id="Gradient_15" gradientUnits="userSpaceOnUse" x1="1.1000000000000014" y1="37.75" x2="72.30000000000001" y2="37.75" spreadMethod="pad">
<stop  offset="0%" stop-color="#424857" stop-opacity="0.8"/>

<stop  offset="100%" stop-color="#62869D" stop-opacity="0.8"/>
</linearGradient>

<linearGradient id="Gradient_16" gradientUnits="userSpaceOnUse" x1="1.3999999999999986" y1="13.95" x2="72" y2="13.95" spreadMethod="pad">
<stop  offset="0%" stop-color="#424857" stop-opacity="0.8"/>

<stop  offset="100%" stop-color="#62869D" stop-opacity="0.8"/>
</linearGradient>

<linearGradient id="Gradient_17" gradientUnits="userSpaceOnUse" x1="2.1499999999999986" y1="36.55" x2="71.25" y2="36.55" spreadMethod="pad">
<stop  offset="0%" stop-color="#424857" stop-opacity="0.8"/>

<stop  offset="100%" stop-color="#62869D" stop-opacity="0.8"/>
</linearGradient>

<linearGradient id="Gradient_18" gradientUnits="userSpaceOnUse" x1="2.049999999999997" y1="11.85" x2="69.95" y2="11.85" spreadMethod="pad">
<stop  offset="0%" stop-color="#424857" stop-opacity="0.8"/>

<stop  offset="100%" stop-color="#62869D" stop-opacity="0.8"/>
</linearGradient>

<linearGradient id="Gradient_19" gradientUnits="userSpaceOnUse" x1="-0.025000000000005684" y1="55" x2="74.125" y2="55" spreadMethod="pad">
<stop  offset="0%" stop-color="#DB8B57"/>

<stop  offset="100%" stop-color="#E8B18E"/>
</linearGradient>

<linearGradient id="Gradient_20" gradientUnits="userSpaceOnUse" x1="38.1625" y1="57.724999999999994" x2="45.237500000000004" y2="64.375" spreadMethod="pad">
<stop  offset="0%" stop-color="#855536"/>

<stop  offset="100%" stop-color="#CA753E" stop-opacity="0"/>
</linearGradient>

<linearGradient id="Gradient_21" gradientUnits="userSpaceOnUse" x1="23.549999999999997" y1="16.45" x2="26.25" y2="16.45" spreadMethod="pad">
<stop  offset="0%" stop-color="#151A11"/>

<stop  offset="100%" stop-color="#667450"/>
</linearGradient>

<linearGradient id="Gradient_22" gradientUnits="userSpaceOnUse" x1="11.75" y1="2.85" x2="11.75" y2="-0.050000000000000266" spreadMethod="pad">
<stop  offset="0%" stop-color="#151A11"/>

<stop  offset="100%" stop-color="#667450"/>
</linearGradient>

<linearGradient id="Gradient_23" gradientUnits="userSpaceOnUse" x1="43.5" y1="36.9" x2="46.2" y2="36.9" spreadMethod="pad">
<stop  offset="0%" stop-color="#151A11"/>

<stop  offset="100%" stop-color="#667450"/>
</linearGradient>

<linearGradient id="Gradient_24" gradientUnits="userSpaceOnUse" x1="36.25" y1="15.35" x2="37.55" y2="14.049999999999999" spreadMethod="pad">
<stop  offset="0%" stop-color="#151A11"/>

<stop  offset="100%" stop-color="#667450"/>
</linearGradient>

<linearGradient id="Gradient_25" gradientUnits="userSpaceOnUse" x1="-9.950000000000017" y1="169.33749999999998" x2="375.25" y2="297.3625" spreadMethod="pad">
<stop  offset="0%" stop-color="#B5744A"/>

<stop  offset="100%" stop-color="#E2B693"/>
</linearGradient>

<linearGradient id="Gradient_26" gradientUnits="userSpaceOnUse" x1="0" y1="423.2" x2="365.3" y2="423.2" spreadMethod="pad">
<stop  offset="0%" stop-color="#E9B796"/>

<stop  offset="100%" stop-color="#EFCCB0"/>
</linearGradient>

<linearGradient id="Gradient_27" gradientUnits="userSpaceOnUse" x1="7.324999999999989" y1="20.2" x2="357.875" y2="20.2" spreadMethod="pad">
<stop  offset="0%" stop-color="#E9B796"/>

<stop  offset="100%" stop-color="#EFCCB0"/>
</linearGradient>

<linearGradient id="Gradient_28" gradientUnits="userSpaceOnUse" x1="9.900000000000006" y1="13.85" x2="355.4" y2="13.85" spreadMethod="pad">
<stop  offset="0%" stop-color="#A96C45"/>

<stop  offset="100%" stop-color="#E2B693"/>
</linearGradient>

<linearGradient id="Gradient_29" gradientUnits="userSpaceOnUse" x1="4.900000000000006" y1="5" x2="360.4" y2="5" spreadMethod="pad">
<stop  offset="0%" stop-color="#E9B796"/>

<stop  offset="100%" stop-color="#EFCCB0"/>
</linearGradient>

<linearGradient id="Gradient_30" gradientUnits="userSpaceOnUse" x1="2.499999999999993" y1="37.05" x2="71.6" y2="37.05" spreadMethod="pad">
<stop  offset="0%" stop-color="#555E6F" stop-opacity="0.8"/>

<stop  offset="100%" stop-color="#829EB0" stop-opacity="0.8"/>
</linearGradient>

<linearGradient id="Gradient_31" gradientUnits="userSpaceOnUse" x1="2.499999999999993" y1="10.45" x2="71.1" y2="10.45" spreadMethod="pad">
<stop  offset="0%" stop-color="#555E6F" stop-opacity="0.8"/>

<stop  offset="100%" stop-color="#829EB0" stop-opacity="0.8"/>
</linearGradient>

<linearGradient id="Gradient_32" gradientUnits="userSpaceOnUse" x1="1.7999999999999972" y1="35.3" x2="72.3" y2="35.3" spreadMethod="pad">
<stop  offset="0%" stop-color="#555E6F" stop-opacity="0.8"/>

<stop  offset="100%" stop-color="#829EB0" stop-opacity="0.8"/>
</linearGradient>

<linearGradient id="Gradient_33" gradientUnits="userSpaceOnUse" x1="2.3999999999999986" y1="9.95" x2="72.19999999999999" y2="9.95" spreadMethod="pad">
<stop  offset="0%" stop-color="#555E6F" stop-opacity="0.8"/>

<stop  offset="100%" stop-color="#829EB0" stop-opacity="0.8"/>
</linearGradient>

<linearGradient id="Gradient_34" gradientUnits="userSpaceOnUse" x1="-0.025000000000005684" y1="55" x2="74.125" y2="55" spreadMethod="pad">
<stop  offset="0%" stop-color="#E9B796"/>

<stop  offset="100%" stop-color="#EFCCB0"/>
</linearGradient>

<filter id="Filter_1" x="-20%" y="-20%" width="140%" height="140%" color-interpolation-filters="sRGB">
<feColorMatrix in="SourceGraphic" type="matrix" values="0 0 0 0 0 0 0 0 0 0 0 0 0 0 0 0 0 0 0.3 0" result="result1"/>
</filter>

<g id="graphics_uid739e5988_graphics_c7cd1xz2sbszu1w09a4vmgraphics_2qxnd5t91lls01mc7h1o6graphics_world_map_0_Layer1_0_FILL">
<path fill="url(#Gradient_1)" stroke="none" d="
M 860.1 -138.6
Q 860.1 -141.6 857.1 -141.6
L 113.4 -141.6
Q 110.4 -141.6 110.4 -138.6
L 110.4 427
Q 110.4 430 113.4 430
L 857.1 430
Q 860.1 430 860.1 427
L 860.1 -138.6 Z"/>
</g>

<g id="graphics_uid739e5988_graphics_c7cd1xz2sbszu1w09a4vmgraphics_2qxnd5t91lls01mc7h1o6graphics_world_map_0_Layer0_0_FILL">
<path fill="url(#Gradient_2)" stroke="none" d="
M 120.65 160.3
L 120.1 158.95 118.15 160.3 120.65 160.3 Z"/>

<path fill="url(#Gradient_3)" stroke="none" d="
M 649.1 -131.65
L 648.05 -134.4
Q 647.75 -135.1 646.9 -135.45 646 -135.9 645 -135.9
L 642.65 -135.9 640.9 -140.15
Q 640.65 -140.75 639.9 -141.2 638.9 -141.65 637.95 -141.65
L 614 -141.65
Q 613 -141.65 612.55 -141.2 612 -140.75 612.25 -140.15
L 612.8 -138.7 610.35 -138.7
Q 609.35 -138.7 608.9 -138.35 608.25 -138 608.6 -137.35
L 609.2 -135.9 602 -135.9
Q 601 -135.9 600.45 -135.45 599.95 -135.1 600.15 -134.4
L 602.4 -128.75
Q 602.7 -128.2 603.55 -127.7 604.35 -127.35 605.4 -127.35
L 607.8 -127.35 608.95 -124.45 606.55 -124.45
Q 605.55 -124.45 605.1 -123.95 604.5 -123.6 604.65 -123.05
L 605.25 -121.55 595.75 -121.55 595.1 -123.05
Q 594.95 -123.6 594 -123.95 593.2 -124.45 592.15 -124.45
L 553.9 -124.45
Q 552.9 -124.45 552.35 -123.95 551.85 -123.6 552.1 -123.05
L 552.6 -121.55 540.7 -121.55
Q 539.65 -121.55 539.15 -121.2 538.65 -120.7 538.85 -120.15
L 539.4 -118.75 537.05 -118.75
Q 536.05 -118.75 535.55 -118.25 534.95 -117.9 535.2 -117.25
L 535.8 -115.9 533.4 -115.9
Q 532.35 -115.9 531.9 -115.45 531.35 -115 531.55 -114.45
L 532.15 -113 524.9 -113
Q 523.9 -113 523.4 -112.6 522.9 -112.2 523.15 -111.55
L 523.65 -110.1 521.3 -110.1
Q 520.3 -110.1 519.75 -109.65 519.3 -109.35 519.55 -108.65
L 520.05 -107.25 512.9 -107.25
Q 511.9 -107.25 511.4 -106.85 510.85 -106.4 511.1 -105.8
L 511.6 -104.4 509.25 -104.4
Q 508.25 -104.4 507.75 -104 507.15 -103.55 507.4 -103
L 508 -101.5 505.6 -101.5
Q 504.6 -101.5 504.1 -101.05 503.45 -100.75 503.8 -100.1
L 504.9 -97.2 506.75 -98.65 507.35 -97.2 504.9 -97.2 495.4 -97.2 493 -97.2 492.4 -98.65 495.4 -97.2 494.2 -100.1
Q 494 -100.75 493.05 -101.05 492.2 -101.5 491.2 -101.5
L 476.85 -101.5
Q 475.85 -101.5 475.35 -101.05 474.8 -100.75 475.1 -100.1
L 476.2 -97.2
Q 476.4 -96.65 477.3 -96.3 478.15 -95.85 479.15 -95.85
L 486.3 -95.85 486.95 -94.35
Q 487.15 -93.8 488 -93.35 488.9 -93.05 489.85 -93
L 492.25 -93 492.85 -91.55
Q 493.1 -90.95 494 -90.5 494.85 -90.1 495.85 -90.1
L 498.2 -90.1 498.85 -88.65
Q 499 -88.05 499.85 -87.7 500.75 -87.25 501.75 -87.2
L 504.15 -87.2 504.7 -85.75
Q 504.9 -85.15 505.85 -84.75 506.6 -84.4 507.7 -84.35
L 510.05 -84.35 512.95 -77.2
Q 513.15 -76.6 514.1 -76.15 514.85 -75.75 515.95 -75.75
L 518.3 -75.75 520.6 -70.05 518.2 -70.05
Q 517.2 -70.05 516.65 -69.55 516.2 -69.15 516.4 -68.55
L 516.9 -67.2 514.55 -67.2
Q 513.5 -67.2 513.1 -66.75 512.55 -66.35 512.7 -65.7 512.45 -66.35 511.6 -66.75 510.7 -67.2 509.75 -67.2
L 507.4 -67.2 506.8 -68.55
Q 506.55 -69.15 505.7 -69.55 504.8 -70.05 503.9 -70.05 504.8 -70.1 505.3 -70.45 505.9 -70.9 505.7 -71.45
L 504.5 -74.3
Q 504.3 -74.95 503.35 -75.35 502.55 -75.75 501.5 -75.75
L 499.2 -75.75 498.5 -77.2
Q 498.3 -77.85 497.45 -78.15 496.6 -78.6 495.6 -78.6
L 478.85 -78.6 478.3 -80.1
Q 478.05 -80.7 477.15 -81.1 476.35 -81.5 475.3 -81.5
L 472.95 -81.5 471.2 -85.75
Q 470.9 -86.45 470.1 -86.85 469.2 -87.2 468.25 -87.2
L 465.8 -87.2 465.3 -88.65
Q 465.05 -89.2 464.15 -89.7 463.3 -90.1 462.3 -90.1
L 443.15 -90.1
Q 442.15 -90.1 441.65 -89.7 441.1 -89.2 441.3 -88.65
L 444.8 -80.1
Q 445 -79.45 445.95 -79 446.75 -78.65 447.8 -78.6
L 450.15 -78.6 451.85 -74.3
Q 452.05 -73.85 453 -73.35 453.8 -72.85 454.8 -72.85
L 457.25 -72.85 458.9 -68.55
Q 459.2 -68.05 460 -67.6 460.9 -67.2 461.85 -67.2
L 464.25 -67.2 464.85 -65.7
Q 465.1 -65.2 465.95 -64.8 466.8 -64.35 467.85 -64.25
L 470.25 -64.25 470.75 -62.9
Q 471.05 -62.25 471.9 -61.9 472.75 -61.5 473.75 -61.45
L 476.15 -61.45 476.75 -59.9
Q 476.9 -59.45 477.8 -59 478.7 -58.65 479.75 -58.65
L 486.9 -58.65 487.4 -57.2
Q 487.7 -56.55 488.55 -56.1 489.4 -55.75 490.4 -55.7
L 492.8 -55.7 493.35 -54.35
Q 493.6 -53.65 494.5 -53.3 495.35 -52.85 496.35 -52.85
L 498.8 -52.85 502.2 -44.3 499.75 -44.3
Q 498.8 -44.3 498.2 -43.8 497.7 -43.45 498 -42.8
L 498.5 -41.4 484.2 -41.4 483.65 -42.8
Q 483.35 -43.45 482.5 -43.8 481.65 -44.3 480.65 -44.3
L 478.25 -44.3 477.7 -45.7
Q 477.45 -46.3 476.6 -46.7 475.7 -47.1 474.75 -47.1
L 472.3 -47.1 470.6 -51.4
Q 470.35 -52 469.5 -52.45 468.6 -52.85 467.6 -52.85
L 465.25 -52.85 464.65 -54.35
Q 464.4 -54.9 463.5 -55.25 462.65 -55.7 461.7 -55.7
L 456.85 -55.7
Q 455.9 -55.7 455.35 -55.25 454.8 -54.9 455.1 -54.35
L 455.65 -52.85 453.25 -52.85
Q 452.3 -52.85 451.75 -52.45 451.2 -52 451.45 -51.4
L 452 -50 449.6 -50
Q 448.6 -50 448.2 -49.55 447.55 -49.15 447.8 -48.6
L 448.3 -47.1 445.95 -47.1
Q 444.95 -47.1 444.4 -46.7 444 -46.3 444.15 -45.7
L 444.7 -44.3 437.55 -44.3
Q 436.55 -44.3 436 -43.8 435.5 -43.45 435.75 -42.8
L 437.4 -38.5 435 -38.5
Q 434.05 -38.5 433.6 -38.15 433 -37.7 433.2 -37.05
L 433.8 -35.7 429 -35.7 428.45 -37.05
Q 428.15 -37.7 427.35 -38.15 426.4 -38.5 425.5 -38.5
L 423 -38.5 422.55 -39.95
Q 422.25 -40.55 421.45 -41 420.55 -41.4 419.55 -41.4
L 417.15 -41.4 414.9 -47.1 417.25 -47.1
Q 418.2 -47.15 418.75 -47.55 419.3 -48 419.05 -48.6
L 418.55 -50 420.9 -50
Q 421.85 -50 422.4 -50.4 422.9 -50.9 422.7 -51.4
L 422.15 -52.85 429.3 -52.85
Q 430.35 -52.85 430.85 -53.3 431.35 -53.65 431.15 -54.35
L 430.6 -55.7 437.75 -55.7
Q 438.75 -55.75 439.25 -56.1 439.8 -56.55 439.55 -57.2
L 438.45 -59.9
Q 438.15 -60.6 437.35 -61 436.45 -61.45 435.5 -61.45
L 433.05 -61.45 429.05 -71.45
Q 428.85 -72.05 427.9 -72.45 427.1720703125 -72.83828125 426.3 -72.85 427.1171875 -72.865625 427.65 -73.35 428.1 -73.85 427.85 -74.3
L 426.75 -77.2
Q 426.5 -77.85 425.65 -78.15 424.75 -78.6 423.85 -78.6
L 421.45 -78.6 416.3 -91.55
Q 415.95 -92.15 415.15 -92.45 414.25 -93 413.3 -93
L 410.85 -93 410.3 -94.35
Q 410.05 -94.95 409.25 -95.35 408.35 -95.85 407.35 -95.85
L 393 -95.85
Q 392 -95.85 391.5 -95.35 391 -94.95 391.1 -94.35
L 391.7 -93 389.35 -93
Q 388.35 -93 387.85 -92.45 387.3 -92.15 387.5 -91.55
L 388.1 -90.1 385.75 -90.1
Q 384.75 -90.1 384.2 -89.7 383.7 -89.2 383.9 -88.65
L 384.5 -87.2 382.1 -87.2
Q 381.1 -87.2 380.6 -86.85 380 -86.45 380.15 -85.75
L 381.95 -81.5 379.55 -81.5
Q 378.6 -81.5 378 -81.1 377.55 -80.7 377.75 -80.1
L 378.9 -77.2
Q 379.1 -76.6 380 -76.15 380.85 -75.75 381.8 -75.75
L 384.25 -75.75 384.8 -74.3
Q 385.05 -73.85 386 -73.35 386.8 -72.85 387.8 -72.85
L 390.15 -72.85 390.8 -71.45
Q 391.05 -70.9 391.9 -70.45 392.75 -70.1 393.7 -70.05
L 400.95 -70.05 401.45 -68.55
Q 401.7 -68.05 402.6 -67.6 403.4 -67.2 404.4 -67.2
L 406.8 -67.2 409.15 -61.45 406.7 -61.45
Q 405.7 -61.45 405.25 -61 404.65 -60.6 404.95 -59.9
L 405.45 -58.65 391.1 -58.65 390.6 -59.9
Q 390.25 -60.6 389.45 -61 388.55 -61.45 387.6 -61.45
L 370.85 -61.45 370.3 -62.9
Q 370 -63.45 369.1 -63.9 368.3 -64.25 367.3 -64.25
L 352.9 -64.25
Q 351.9 -64.25 351.45 -63.9 350.85 -63.45 351.15 -62.9
L 351.7 -61.45 349.25 -61.45
Q 348.3 -61.45 347.85 -61 347.25 -60.6 347.45 -59.9
L 348 -58.65 345.6 -58.65
Q 344.6 -58.65 344.2 -58.15 343.6 -57.7 343.8 -57.2
L 344.35 -55.7 308.5 -55.7
Q 307.5 -55.7 307 -55.25 306.45 -54.9 306.7 -54.35
L 307.3 -52.85 297.65 -52.85 297.1 -54.35
Q 296.8 -54.9 296 -55.25 295.15 -55.7 294.15 -55.7
L 291.75 -55.7 291.2 -57.2
Q 290.9 -57.7 290.1 -58.15 289.1 -58.65 288.15 -58.65
L 283.4 -58.65
Q 282.35 -58.65 281.9 -58.15 281.4 -57.7 281.55 -57.2
L 282.1 -55.7 279.8 -55.7
Q 278.75 -55.7 278.25 -55.25 277.75 -54.9 277.9 -54.35 277.7 -54.9 276.8 -55.25 275.9 -55.7 274.95 -55.7
L 265.4 -55.7
Q 264.4 -55.7 263.85 -55.25 263.3 -54.9 263.65 -54.35
L 264.15 -52.85 247.35 -52.85
Q 246.4 -52.85 245.9 -52.45 245.3 -52 245.6 -51.4
L 246.15 -50 243.75 -50
Q 242.75 -50 242.25 -49.55 241.7 -49.15 241.95 -48.6
L 242.45 -47.1 230.55 -47.1
Q 229.6 -47.1 229 -46.7 228.5078125 -46.30625 228.7 -45.75 228.4859375 -46.30625 227.6 -46.7 226.7 -47.1 225.8 -47.1
L 220.95 -47.1
Q 219.95 -47.1 219.45 -46.7 218.95 -46.3 219.15 -45.7
L 220.9 -41.4 218.45 -41.4
Q 217.5 -41.4 216.95 -41 216.4 -40.55 216.7 -39.95
L 217.25 -38.5 214.75 -38.5
Q 213.8 -38.5 213.4 -38.15 212.8 -37.7 213 -37.05
L 213.55 -35.7 206.4 -35.7
Q 205.45 -35.7 204.85 -35.25 204.35 -34.9 204.6 -34.2
L 205.15 -32.8 198 -32.8
Q 197.05 -32.8 196.45 -32.35 195.9 -32 196.15 -31.4
L 197.85 -27.1 195.45 -27.1
Q 194.45 -27.1 193.95 -26.6 193.4 -26.25 193.65 -25.7
L 195.4 -21.35 190.6 -21.35 188.9 -25.7
Q 188.6 -26.25 187.7 -26.6 186.9 -27.1 185.9 -27.1
L 181.05 -27.1
Q 180.1 -27.1 179.6 -26.6 179 -26.25 179.3 -25.7
L 179.9 -24.25 177.45 -24.25
Q 176.5 -24.25 175.95 -23.75 175.40859375 -23.30703125 175.7 -22.85 175.3876953125 -23.30703125 174.6 -23.75 173.7 -24.25 172.75 -24.25
L 170.3 -24.25 169.75 -25.7
Q 169.45 -26.25 168.6 -26.6 167.75 -27.1 166.75 -27.1
L 164.35 -27.1 163.75 -28.5
Q 163.6 -29.1 162.7 -29.55 161.75 -29.9 160.8 -29.9
L 158.4 -29.9 157.85 -31.4
Q 157.6 -32 156.7 -32.35 155.85 -32.8 154.85 -32.8
L 152.5 -32.8 151.9 -34.2
Q 151.65 -34.9 150.8 -35.25 149.95 -35.7 148.95 -35.7
L 146.55 -35.7 145.95 -37.05
Q 145.75 -37.7 144.85 -38.15 144 -38.5 143.05 -38.5
L 140.6 -38.5 140.15 -39.95
Q 139.8 -40.55 138.95 -41 138.1 -41.4 137.15 -41.4
L 134.7 -41.4 134.15 -42.8
Q 133.85 -43.45 133 -43.8 132.222265625 -44.2861328125 131.35 -44.3 132.1171875 -44.3125 132.65 -44.7 133.2 -45.1 132.95 -45.7
L 132.4 -47.1 134.8 -47.1
Q 135.75 -47.15 136.25 -47.55 136.85 -48 136.6 -48.6
L 136.1 -50 140.85 -50 141.35 -48.6
Q 141.6 -48 142.5 -47.55 143.3 -47.15 144.35 -47.1
L 146.7 -47.1 147.35 -45.7
Q 147.55 -45.1 148.45 -44.7 149.3 -44.3 150.35 -44.3
L 169.5 -44.3
Q 170.4 -44.3 170.95 -44.7 171.5 -45.1 171.25 -45.7
L 170.7 -47.1 187.4 -47.1
Q 188.4 -47.15 188.95 -47.55 189.45 -48 189.25 -48.6
L 188.2 -51.4
Q 187.9 -52 187.05 -52.45 186.15 -52.85 185.15 -52.85
L 182.75 -52.85 182.15 -54.35
Q 181.95 -54.9 181.05 -55.25 180.15 -55.7 179.2 -55.7
L 167.25 -55.7 166.65 -57.2
Q 166.45 -57.7 165.55 -58.15 164.7 -58.65 163.7 -58.65
L 147 -58.65 146.35 -59.9
Q 146.15 -60.6 145.3 -61 144.4 -61.45 143.35 -61.45
L 141.05 -61.45 140.5 -62.9
Q 140.25 -63.45 139.35 -63.9 138.5 -64.25 137.5 -64.25
L 111.2 -64.25 110.6 -65.7
Q 110.55 -65.9 110.4 -66
L 110.4 137.2 114 146.15
Q 114.15 146.75 115.1 147.15 115.9 147.55 116.95 147.55
L 119.35 147.55 119.9 149
Q 120.15 149.6 121 150.05 121.9 150.4 122.95 150.45
L 125.25 150.45 125.9 151.9
Q 126.05 152.4 127 152.85 127.8 153.35 128.85 153.35
L 138.4 153.35
Q 139.3 153.35 139.9 152.85 140.45 152.4 140.25 151.9
L 139.05 149
Q 138.85 148.4 137.95 148.05 137.1 147.55 136.15 147.55
L 133.7 147.55 133.2 146.15
Q 132.9 145.6 132.05 145.15 131.15 144.75 130.2 144.75
L 125.4 144.75 128.4 146.15 125.95 146.15 125.4 144.75 122.55 137.6 132.1 137.6 131.6 136.1 160.25 136.1
Q 161.25 136.1 161.75 135.75 162.35 135.25 162.05 134.7
L 161.5 133.25 163.85 133.25
Q 164.85 133.2 165.4 132.85 165.95 132.35 165.75 131.85
L 162.25 123.2
Q 162 122.7 161.15 122.2 160.25 121.8 159.3 121.8
L 156.85 121.8 155.8 118.95 158.15 118.95
Q 159.15 118.95 159.7 118.55 160.15 118.1 160 117.55
L 159.45 116.05 166.65 116.05
Q 167.6 116.05 168.1 115.65 168.65 115.25 168.4 114.65
L 164.45 104.7 171.6 104.7
Q 172.55 104.65 173.1 104.2 173.65 103.8 173.4 103.2
L 172.85 101.75 175.2 101.75
Q 176.2 101.75 176.75 101.4 177.25 100.85 177.05 100.35
L 175.3 96.1 189.7 96.1 191.4 100.35
Q 191.65 100.85 192.55 101.4 193.35 101.75 194.3 101.75
L 199.2 101.75
Q 200.15 101.75 200.65 101.4 201.15 100.85 201 100.35
L 200.45 98.9 202.85 98.9
Q 203.8 98.9 204.35 98.5 204.75 98.1 204.6 97.45
L 204.1 96.1 218.4 96.1 219 97.45
Q 219.2 98.1 220.1 98.5 220.95 98.9 221.95 98.9
L 229.1 98.9 229.8 100.35
Q 229.95 100.85 230.85 101.4 231.65 101.75 232.6 101.75
L 235.1 101.75 237.35 107.5 225.4 107.5
Q 224.4 107.5 223.85 107.95 223.35 108.35 223.6 109
L 224.75 111.75
Q 224.9 112.4 225.9 112.8 226.65 113.15 227.75 113.2
L 230.05 113.2 230.6 114.65
Q 230.95 115.25 231.8 115.65 232.6 116.05 233.6 116.05
L 238.4 116.05
Q 239.35 116.05 239.95 115.65 240.45 115.25 240.2 114.65
L 239.65 113.2 244.45 113.2 245.05 114.65
Q 245.3 115.25 246.15 115.65 247 116.05 248 116.05
L 250.4 116.05 251 117.55
Q 251.15 118.1 252.15 118.55 252.85 118.95 253.9 118.95
L 256.35 118.95 256.85 120.3
Q 257.15 121 258 121.4 258.85 121.8 259.8 121.8
L 262.25 121.8 264 126.1
Q 264.15 126.7 265.1 127.15 265.9 127.55 267 127.55
L 269.35 127.55 271.6 133.25 269.25 133.25
Q 268.2 133.25 267.75 133.75 267.2 134.05 267.4 134.7
L 267.95 136.1 260.8 136.1
Q 259.8 136.1 259.3 136.55 258.7 137 259 137.6
L 259.55 139 249.95 139 249.4 137.6
Q 249.2 137 248.35 136.55 247.4 136.1 246.45 136.1
L 244.05 136.1 243.45 134.7
Q 243.25 134.05 242.3 133.75 241.45 133.25 240.45 133.25
L 211.75 133.25
Q 210.8 133.25 210.25 133.75 209.7 134.05 209.9 134.7
L 210.6 136.1 193.8 136.1
Q 192.8 136.1 192.25 136.55 191.75 137 192 137.6
L 192.45 139 185.3 139
Q 184.3 139 183.85 139.35 183.25 139.8 183.5 140.5
L 184.1 141.9 179.3 141.9 178.75 140.5
Q 178.5 139.8 177.6 139.35 176.75 139 175.75 139
L 170.95 139
Q 169.95 139 169.5 139.35 168.9 139.8 169.1 140.5
L 174.9 154.75
Q 175.1 155.3 175.95 155.7 176.9 156.15 177.9 156.2
L 180.25 156.2 181.95 160.5
Q 182.2 161.05 183.1 161.45 183.95 161.9 184.95 161.9
L 232.8 161.9
Q 233.75 161.9 234.25 161.45 234.85 161.05 234.65 160.5
L 234.05 159 238.85 159 239.35 160.5
Q 239.7 161.05 240.5 161.45 241.4 161.9 242.35 161.9
L 244.8 161.9 245.35 163.35
Q 245.55 164 246.5 164.35 247.35 164.75 248.35 164.8 247.35 164.8 246.85 165.2 246.25 165.55 246.5 166.25
L 247.05 167.6 244.6 167.6
Q 243.65 167.6 243.25 168.05 242.6 168.4 242.85 169.1
L 244.55 173.4 242.25 173.4
Q 241.25 173.4 240.7 173.85 240.15 174.2 240.35 174.85
L 241.5 177.7
Q 241.75 178.15 242.6 178.6 243.45 179.05 244.45 179.2
L 246.85 179.2 248 181.9 245.6 181.9
Q 244.6 181.9 244.1 182.45 243.55 182.8 243.85 183.4
L 245.45 187.7 243.15 187.7
Q 242.1 187.7 241.6 188.1 241.05 188.55 241.3 189.05
L 243.1 193.35 240.6 193.35
Q 239.65 193.35 239.15 193.85 238.55 194.2 238.8 194.8
L 239.35 196.3 236.95 196.3
Q 235.95 196.3 235.5 196.65 234.95 197.1 235.15 197.7
L 235.7 199.15 226.15 199.15 225.55 197.7
Q 225.3 197.1 224.5 196.65 223.55 196.3 222.65 196.3
L 172.3 196.3 171.75 194.8
Q 171.55 194.2 170.65 193.85 169.8 193.35 168.8 193.35
L 166.4 193.35 165.85 192
Q 165.6 191.35 164.75 190.95 163.85 190.5 162.85 190.5
L 160.5 190.5 159.85 189.05
Q 159.65 188.55 158.7 188.1 157.9 187.7 156.95 187.7
L 149.7 187.7 149.2 186.25
Q 149 185.7 148.1 185.2 147.25 184.75 146.25 184.75
L 141.45 184.75
Q 140.5 184.75 139.95 185.2 139.35 185.7 139.55 186.25
L 141.3 190.5 138.95 190.5
Q 137.95 190.5 137.4 190.95 136.9 191.35 137.15 192
L 137.7 193.35 130.55 193.35
Q 129.55 193.35 129.05 193.85 128.45 194.2 128.7 194.8
L 130.4 199.15 128.05 199.15
Q 127 199.15 126.55 199.55 125.95 199.95 126.15 200.6
L 126.8 202 124.4 202
Q 123.45 202 122.95 202.45 122.3 202.8 122.55 203.4
L 123.1 204.9 118.3 204.9 117.85 203.4
Q 117.5 202.8 116.7 202.45 115.8 202 114.8 202
L 112.4 202 111.8 200.6
Q 111.55 199.95 110.7 199.55 110.55 199.5 110.4 199.45
L 110.4 339
Q 110.45 339 110.5 339.05 111.4 339.4 112.35 339.45
L 114.75 339.45 123.95 362.3 121.6 362.3
Q 120.55 362.3 120.05 362.75 119.45 363.15 119.7 363.75
L 123.2 372.35
Q 123.35 373 124.25 373.4 125.05 373.8 126 373.8
L 128.5 373.8 131.35 381
Q 131.6 381.5 132.5 381.9 133.3 382.4 134.25 382.4
L 136.7 382.4 137.25 383.85
Q 137.55 384.4 138.4 384.85 139.25 385.15 140.3 385.25
L 142.65 385.25 144.4 389.55
Q 144.55 390.15 145.5 390.5 146.35 390.95 147.35 390.95
L 149.75 390.95 150.3 392.45
Q 150.55 393 151.45 393.45 152.3 393.75 153.25 393.8
L 155.65 393.8 157.45 398.1
Q 157.6 398.75 158.5 399.1 159.35 399.55 160.4 399.6
L 162.75 399.6 164.45 403.9
Q 164.75 404.4 165.55 404.9 166.3751953125 405.28828125 167.2 405.3 166.4328125 405.3125 165.9 405.7 165.35 406.1 165.65 406.7
L 166.75 409.6
Q 166.9 410.15 167.85 410.6 168.6265625 410.98828125 169.55 411 168.6859375 411.0140625 168.25 411.45 167.7 411.9 167.85 412.5
L 170.25 418.25
Q 170.4 418.75 171.3 419.2 172.15 419.6 173.15 419.6
L 175.55 419.6 177.25 423.85
Q 177.5 424.55 178.4 424.9 179.25 425.3 180.25 425.35
L 182.6 425.35 184.45 430 380.8 430 378.3 423.85
Q 378.05 423.3 377.2 422.9 376.35 422.55 375.35 422.55
L 372.95 422.55 370.15 415.35
Q 369.8 414.75 368.95 414.3 368.1 413.9 367.15 413.9
L 364.7 413.9 359.05 399.6 361.45 399.6
Q 362.4 399.55 362.85 399.1 363.45 398.75 363.3 398.1
L 356.9 382.4 359.3 382.4
Q 360.3 382.4 360.8 381.9 361.4 381.5 361.15 381
L 359.45 376.7 361.8 376.7
Q 362.75 376.65 363.35 376.25 363.85 375.8 363.65 375.25
L 361.95 370.95 364.35 370.95
Q 365.35 370.9 365.85 370.55 366.35 370.1 366.15 369.55
L 365.6 368.05 367.95 368.05
Q 368.95 368.05 369.5 367.65 370.05 367.25 369.75 366.65
L 369.2 365.2 371.65 365.2
Q 372.6 365.2 373.1 364.75 373.7 364.4 373.45 363.75
L 372.85 362.3 375.3 362.3
Q 376.25 362.3 376.85 361.95 377.25 361.5 377.1 360.9
L 376.5 359.4 378.9 359.4
Q 379.85 359.4 380.4 359.05 380.9 358.6 380.75 358.05
L 380.1 356.65 382.5 356.65
Q 383.5 356.6 384 356.15 384.55 355.8 384.35 355.15
L 382.65 350.9 385 350.9
Q 386 350.9 386.55 350.5 387.1 350.05 386.85 349.45
L 386.25 348.1 388.65 348.1
Q 389.65 348 390.15 347.65 390.75 347.2 390.45 346.6
L 389.9 345.15 392.3 345.15
Q 393.25 345.15 393.8 344.7 394.35 344.3 394.2 343.8
L 393.55 342.3 396 342.3
Q 396.95 342.3 397.5 341.85 398.05 341.45 397.8 340.85
L 397.2 339.45 399.55 339.45
Q 400.55 339.4 401.15 339.05 401.6 338.55 401.4 338
L 399.7 333.7 402.1 333.7
Q 403.1 333.65 403.6 333.25 404.1 332.9 403.95 332.25
L 402.2 327.95 404.55 327.95
Q 405.45 327.95 406.15 327.6 406.6 327.1 406.4 326.5
L 404.1 320.8 406.5 320.8 403.6 313.7 403.1 312.3 405.45 312.3 403.6 313.7 408.45 313.7
Q 409.45 313.7 409.95 313.2 410.45 312.75 410.25 312.3
L 408 306.5
Q 407.75 305.9 406.85 305.5 406.05 305.1 405.05 305.1
L 400.25 305.1
Q 399.3 305.1 398.7 305.5 398.15 305.9 398.4 306.5
L 399 308 396.6 308
Q 395.6 308 395.1 308.45 394.5 308.75 394.75 309.4
L 395.9 312.3 397.75 310.8 398.25 312.3 395.9 312.3 362.35 312.3 360 312.3 359.45 310.8 362.35 312.3 361.2 309.4
Q 360.95 308.75 360.15 308.45 359.25 308 358.35 308
L 355.85 308 355.35 306.5
Q 355.1 305.9 354.2 305.5 353.35 305.1 352.35 305.1
L 349.95 305.1 348.25 300.8
Q 348 300.15 347.15 299.8 346.25 299.35 345.2 299.35
L 342.85 299.35 341.15 295.05
Q 340.9 294.4 340 294.05 339.1 293.6 338.15 293.6
L 335.85 293.6 335.2 292.2
Q 335 291.6 334.05 291.15 333.2 290.7 332.25 290.7
L 329.85 290.7 329.3 289.35
Q 329.05 288.8 328.2 288.3 327.35 287.9 326.35 287.9
L 323.95 287.9 322.2 283.65
Q 321.95 283 321.05 282.65 320.25 282.2 319.2 282.2
L 316.85 282.2 316.2 280.7
Q 316 280.15 315.15 279.75 314.3 279.4 313.4 279.4
L 310.95 279.4 309.2 275.05
Q 308.95 274.4 308.05 274.05 307.2 273.6 306.2 273.6
L 303.8 273.6 302.15 269.3
Q 301.85 268.65 301 268.25 300.15 267.85 299.15 267.85
L 296.75 267.85 295 263.55
Q 294.8 262.95 293.9 262.55 293.05 262.15 292.1 262.15
L 289.7 262.15 289.1 260.7
Q 288.85 260.1 288 259.7 287.1 259.2 286.15 259.2
L 283.75 259.2 282 254.95
Q 281.75 254.4 280.9 253.9 279.95 253.55 279.05 253.55
L 276.6 253.55 273.75 246.35
Q 273.5 245.8 272.65 245.35 271.8 244.95 270.85 244.95
L 268.45 244.95 265.65 237.8
Q 265.35 237.2 264.45 236.75 263.65 236.3 262.65 236.3
L 260.25 236.3 259.6 234.9
Q 259.4 234.3 258.55 233.95 257.6 233.5 256.7 233.5 257.6 233.4 258.15 233.05 258.7 232.7 258.55 232.05
L 257.4 229.2
Q 257.1 228.6 256.25 228.2 255.4 227.75 254.4 227.75
L 252 227.75 250.25 223.4
Q 250.05 222.9 249.15 222.4 248.35 222.05 247.3 222.05
L 244.95 222.05 244.35 220.6
Q 244.1 220.05 243.25 219.6 242.35 219.15 241.4 219.15
L 239 219.15 238.4 217.75
Q 238.15 217.1 237.2 216.8 236.4 216.25 235.4 216.25
L 233.05 216.25 232.45 214.9
Q 232.2 214.3 231.4 213.85 230.5 213.45 229.55 213.45
L 227.1 213.45 226 210.6 228.35 210.6
Q 229.3 210.55 229.85 210.2 230.35 209.7 230.15 209.2
L 229.65 207.7 232 207.7
Q 232.95 207.7 233.5 207.2 234.04140625 206.85546875 233.8 206.3 234.0638671875 206.85546875 234.95 207.2 235.8 207.7 236.8 207.7
L 246.3 207.7
Q 247.35 207.7 247.8 207.2 248.345703125 206.852734375 248.2 206.3 248.357421875 206.852734375 249.3 207.2 250.15 207.7 251.15 207.7
L 253.55 207.7 254.1 209.2
Q 254.35 209.7 255.25 210.2 256.1 210.55 257.1 210.6
L 259.45 210.6 263.55 220.6
Q 263.7 221.25 264.6 221.6 265.5 222.05 266.45 222.05
L 268.85 222.05 270.55 226.3
Q 270.8 226.9 271.7 227.4 272.55 227.7 273.5 227.75
L 275.9 227.75 276.5 229.2
Q 276.7 229.8 277.65 230.15 278.45 230.65 279.45 230.65
L 281.9 230.65 283.55 234.9
Q 283.8 235.5 284.7 235.95 285.5 236.3 286.55 236.3
L 288.9 236.3 289.55 237.8
Q 289.7 238.35 290.65 238.75 291.45 239.2 292.5 239.2
L 294.9 239.2 296.55 243.6
Q 296.8 244.05 297.65 244.5 298.55 244.95 299.5 244.95
L 301.9 244.95 303.65 249.2
Q 303.9 249.85 304.75 250.3 305.65 250.65 306.65 250.65
L 309.05 250.65 310.75 254.95
Q 310.95 255.55 311.9 255.95 312.65 256.4 313.75 256.45
L 316.1 256.45 316.65 257.8
Q 316.9 258.4 317.75 258.85 318.7 259.2 319.65 259.2
L 322.05 259.2 323.8 263.55
Q 323.95 264.2 324.85 264.55 325.7 264.95 326.75 265
L 329.1 265 329.7 266.5
Q 329.9 267 330.85 267.45 331.65 267.85 332.7 267.85
L 335 267.85 336.75 272.1
Q 337.05 272.75 337.9 273.2 338.75 273.6 339.75 273.6
L 342.15 273.6 343.85 277.9
Q 344.05 278.4 345 278.95 345.75 279.35 346.8 279.4
L 349.25 279.4 351.5 285.05 349.1 285.05
Q 348.15 285.05 347.55 285.55 347.05 285.85 347.25 286.45
L 349.6 292.2
Q 349.8 292.75 350.7 293.25 351.5 293.55 352.5 293.6
L 362.1 293.6
Q 363 293.55 363.6 293.25 364.15 292.75 363.95 292.2
L 363.4 290.7 370.55 290.7
Q 371.5 290.7 372.05 290.3 372.6 289.9 372.35 289.35
L 371.8 287.9 383.8 287.9
Q 384.65 287.85 385.25 287.45 385.8 287.05 385.6 286.45
L 385 285.05 392.15 285.05
Q 393.15 284.95 393.7 284.55 394.25 284.15 394.05 283.65
L 393.4 282.2 410.2 282.2
Q 411.15 282.2 411.7 281.7 412.25 281.3 412 280.7
L 411.5 279.4 413.85 279.4
Q 414.8 279.35 415.35 278.95 415.85 278.4 415.65 277.9
L 415.1 276.45 417.5 276.45
Q 418.5 276.45 419 276 419.5 275.55 419.3 275.05
L 417.6 270.75 419.95 270.75
Q 420.85 270.7 421.5 270.35 422 269.8 421.8 269.3
L 421.2 267.85 423.65 267.85
Q 424.55 267.85 425.15 267.45 425.65 267 425.4 266.5
L 424.85 265 427.25 265
Q 428.2 264.95 428.8 264.55 429.3 264.2 429.1 263.55
L 427.4 259.2 429.8 259.2
Q 430.75 259.2 431.25 258.85 431.79140625 258.40703125 431.55 257.85 431.8130859375 258.40703125 432.65 258.85 433.6 259.2 434.55 259.2
L 439.3 259.2
Q 440.3 259.2 440.8 258.85 441.3 258.4 441.15 257.8
L 440.55 256.45 442.95 256.45
Q 443.95 256.4 444.45 255.95 445 255.55 444.8 254.95
L 444.15 253.55 446.55 253.55
Q 447.55 253.55 448.1 253.1 448.6 252.65 448.4 252.1
L 447.3 249.2
Q 447.05 248.6 446.15 248.25 445.25 247.85 444.35 247.85 445.25 247.75 445.85 247.4 446.3 246.95 446.15 246.35
L 445.55 244.95 447.95 244.95
Q 448.95 244.95 449.45 244.5 450 244.05 449.8 243.6
L 448.6 240.65
Q 448.3 240 447.5 239.65 446.6 239.2 445.7 239.2
L 438.45 239.2 437.95 237.8
Q 437.65 237.2 436.8 236.75 435.95 236.3 434.9 236.3
L 427.8 236.3 426.05 232.05
Q 425.8 231.45 424.95 231 424.05 230.65 423.05 230.65
L 418.35 230.65
Q 417.35 230.65 416.8 231 416.3 231.45 416.5 232.05
L 417.05 233.5 414.65 233.5
Q 413.65 233.5 413.2 233.95 412.55 234.3 412.75 234.9
L 413.45 236.3 394.25 236.3 393.65 234.9
Q 393.4 234.3 392.6 233.95 391.65 233.5 390.7 233.5
L 388.25 233.5 387.8 232.05
Q 387.5 231.45 386.65 231 385.8 230.65 384.8 230.65
L 377.65 230.65 377.05 229.2
Q 376.8 228.6 375.85 228.2 375 227.75 374.05 227.75
L 371.7 227.75 368.8 220.6
Q 368.55 220.05 367.65 219.6 366.8 219.15 365.8 219.15
L 363.45 219.15 360.55 212
Q 360.3 211.45 359.45 211.05 358.55 210.6 357.6 210.6
L 355.2 210.6 354.65 209.2
Q 354.35 208.55 353.5 208.15 352.6 207.7 351.65 207.7
L 344.5 207.7 343.9 206.3
Q 343.65 205.7 342.85 205.3 341.9 204.9 340.95 204.9
L 338.5 204.9 337.45 202 339.8 202
Q 340.85 201.95 341.35 201.6 341.8 201.05 341.65 200.6
L 341.1 199.15 343.4 199.15
Q 344.45 199.15 344.95 198.7 345.4421875 198.35546875 345.25 197.75 345.46484375 198.35546875 346.4 198.7 347.25 199.15 348.25 199.15
L 350.65 199.15 351.25 200.6
Q 351.4 201.05 352.35 201.6 353.25 201.95 354.2 202
L 366.15 202 366.7 203.4
Q 366.95 204 367.8 204.45 368.7 204.85 369.65 204.9
L 376.85 204.9 377.45 206.3
Q 377.65 206.85 378.6 207.2 379.35 207.7 380.45 207.7
L 382.8 207.7 384.55 212
Q 384.7 212.6 385.65 213 386.5 213.45 387.5 213.45
L 404.3 213.45 404.8 214.9
Q 405.05 215.45 405.9 215.9 406.75 216.25 407.8 216.25
L 410.2 216.25 410.7 217.75
Q 410.95 218.35 411.85 218.75 412.7 219.1 413.7 219.15
L 416.1 219.15 416.7 220.6
Q 416.85 221.25 417.75 221.6 418.65 222.05 419.6 222.05
L 436.4 222.05 437 223.4
Q 437.15 224.05 438.05 224.5 438.95 224.85 439.95 224.9
L 463.85 224.9
Q 464.8 224.85 465.4 224.5 465.9 224.05 465.6 223.4
L 465.15 222.05 484.3 222.05 484.9 223.4
Q 485.05 224.05 485.9 224.5 486.85 224.85 487.8 224.9
L 509.35 224.9 509.9 226.3
Q 510.15 226.9 511.05 227.4 511.85 227.7 512.9 227.75
L 515.3 227.75 517.05 232.05
Q 517.2 232.7 518.15 233.05 518.9 233.4 519.95 233.5
L 524.75 233.5
Q 525.7 233.4 526.25 233.05 526.75 232.7 526.6 232.05
L 526 230.65 528.45 230.65
Q 529.35 230.65 529.85 230.15 530.4 229.8 530.2 229.2 530.45 229.8 531.35 230.15 532.2 230.65 533.2 230.65
L 540.35 230.65 541 232.05
Q 541.1 232.7 542.05 233.05 542.85 233.4 543.95 233.5 542.85 233.5 542.45 233.95 541.9 234.3 542.05 234.9
L 543.25 237.8 540.85 237.8 543.7 244.95 544.25 246.35 541.95 246.35 543.7 244.95 538.95 244.95
Q 537.9 244.95 537.4 245.35 536.9 245.8 537.05 246.35
L 539.35 252.1
Q 539.6 252.65 540.5 253.1 541.3 253.55 542.35 253.55
L 547.1 253.55
Q 548.05 253.55 548.7 253.1 549.15 252.65 548.95 252.1
L 548.45 250.65 550.8 250.65
Q 551.7 250.65 552.25 250.3 552.79140625 249.85703125 552.6 249.25 552.8140625 249.85703125 553.7 250.3 554.6 250.65 555.6 250.65
L 557.95 250.65 558.5 252.1
Q 558.75 252.65 559.65 253.1 560.4251953125 253.5359375 561.3 253.55 560.4359375 253.5609375 560 253.9 559.4 254.4 559.65 254.95
L 560.85 257.8
Q 561.05 258.4 561.9 258.85 562.8 259.2 563.85 259.2
L 566.2 259.2 571.4 272.1
Q 571.55 272.75 572.55 273.2 573.3 273.6 574.3 273.6
L 576.65 273.6 579.55 280.7
Q 579.8 281.3 580.65 281.7 581.55 282.2 582.5 282.2
L 584.9 282.2 588.95 292.2
Q 589.15 292.75 590.05 293.25 590.9 293.55 591.9 293.6
L 594.25 293.6 597.1 300.8
Q 597.4 301.35 598.25 301.85 599.1 302.15 600.15 302.25
L 602.5 302.25 606.5 312.3
Q 606.8 312.75 607.65 313.2 608.5 313.7 609.5 313.7
L 611.9 313.7 613.6 317.95
Q 613.85 318.55 614.7 318.95 615.6 319.35 616.55 319.35
L 621.35 319.35
Q 622.35 319.35 622.85 318.95 623.4 318.55 623.2 317.95
L 620.35 310.8 622.7 310.8
Q 623.6 310.75 624.25 310.4 624.75 309.95 624.55 309.4
L 622.8 305.1 625.25 305.1
Q 626.2 305.1 626.7 304.65 627.2 304.2 627 303.6
L 618.45 282.2 620.8 282.2
Q 621.75 282.2 622.35 281.7 622.85 281.3 622.65 280.7
L 622.1 279.4 629.35 279.4
Q 630.2 279.35 630.75 278.95 631.25 278.4 631.1 277.9
L 630.5 276.45 632.95 276.45
Q 633.85 276.45 634.45 276 634.85 275.55 634.75 275.05
L 634.1 273.6 636.6 273.6
Q 637.5 273.6 638 273.2 638.55 272.75 638.35 272.1
L 637.85 270.75 640.15 270.75
Q 641.1 270.7 641.65 270.35 642.15 269.8 642 269.3
L 641.5 267.85 643.85 267.85
Q 644.8 267.85 645.35 267.45 645.85 267 645.65 266.5
L 645.1 265 652.25 265
Q 653.25 264.95 653.8 264.55 654.3 264.2 654.1 263.55
L 652.35 259.2 654.8 259.2
Q 655.7 259.2 656.2 258.85 656.8 258.4 656.6 257.8
L 654.9 253.55 662.05 253.55
Q 662.95 253.55 663.55 253.1 664.1 252.65 663.8 252.1
L 663.35 250.65 665.7 250.65
Q 666.65 250.65 667.2 250.3 667.7 249.85 667.5 249.2
L 666.95 247.85 669.35 247.85
Q 670.35 247.75 670.85 247.4 671.35 246.95 671.15 246.35
L 670.55 244.95 687.3 244.95
Q 688.25 244.95 688.8 244.5 689.4 244.05 689.1 243.6
L 688.55 242.1 698.1 242.1 698.7 243.6
Q 698.95 244.05 699.85 244.5 700.65 244.95 701.7 244.95
L 704.1 244.95 704.65 246.35
Q 704.9 246.95 705.75 247.4 706.65 247.75 707.6 247.85
L 710.05 247.85 711.7 252.1
Q 712 252.65 712.85 253.1 713.7 253.55 714.65 253.55
L 717.1 253.55 721.1 263.55
Q 721.35 264.2 722.25 264.55 723.05 264.95 724.1 265
L 726.45 265 729.35 272.1
Q 729.6 272.75 730.5 273.2 731.25 273.6 732.3 273.6
L 746.7 273.6
Q 747.65 273.6 748.15 273.2 748.65 272.75 748.45 272.1
L 747.9 270.75 752.7 270.75 754.4 275.05
Q 754.6 275.55 755.5 276 756.4 276.45 757.35 276.45
L 759.8 276.45 761.45 280.7
Q 761.75 281.3 762.55 281.7 763.45 282.2 764.4 282.2
L 766.85 282.2 772 295.05
Q 772.25 295.65 773.1 296.05 774 296.5 775 296.5
L 779.7 296.5
Q 780.7 296.5 781.25 296.05 781.75 295.65 781.6 295.05
L 779.8 290.7 794.2 290.7 794.85 292.2
Q 795 292.75 795.9 293.25 796.75 293.55 797.75 293.6
L 800.1 293.6 801.9 297.9
Q 802.05 298.55 803 298.9 803.85 299.35 804.85 299.35
L 807.2 299.35 807.85 300.8
Q 808.05 301.35 808.95 301.85 809.75 302.15 810.75 302.25
L 813.15 302.25 813.75 303.6
Q 813.95 304.2 814.9 304.65 815.7 305.1 816.75 305.1
L 819.1 305.1 819.75 306.5
Q 819.9 307.05 820.8 307.45 821.6 307.95 822.6 308
L 825.05 308 825.55 309.4
Q 825.85 309.95 826.75 310.4 827.5 310.75 828.55 310.8
L 833.4 310.8
Q 834.35 310.75 834.85 310.4 835.45 309.95 835.2 309.4
L 833.55 305.1 835.85 305.1
Q 836.8 305.1 837.4 304.65 837.85 304.2 837.7 303.6
L 837.1 302.25 839.5 302.25
Q 840.45 302.15 841 301.85 841.55 301.35 841.25 300.8
L 840.75 299.35 843.1 299.35
Q 844.05 299.35 844.65 298.9 845.15 298.55 844.9 297.9
L 844.4 296.5 846.8 296.5
Q 847.8 296.5 848.3 296.05 848.85 295.65 848.6 295.05
L 842.85 280.7
Q 842.7 280.15 841.8 279.75 840.9 279.4 839.9 279.4
L 837.55 279.4 836.95 277.9
Q 836.7 277.25 835.8 276.9 834.95 276.45 833.95 276.45
L 831.6 276.45 831 275.05
Q 830.75 274.4 829.9 274.05 829.05 273.6 828 273.6
L 825.65 273.6 825.05 272.1
Q 824.85 271.5 823.95 271.15 823.1 270.75 822.05 270.75
L 819.7 270.75 819.2 269.3
Q 818.9 268.65 818.05 268.25 817.2 267.85 816.25 267.85
L 813.8 267.85 808.6 254.95
Q 808.3 254.4 807.5 253.9 806.7220703125 253.5595703125 805.9 253.55 806.615625 253.5359375 807.1 253.1 807.7 252.65 807.4 252.1
L 806.95 250.65 809.35 250.65
Q 810.25 250.65 810.8 250.3 811.35 249.85 811.15 249.2
L 810.55 247.85 824.9 247.85 825.45 249.2
Q 825.65 249.85 826.6 250.3 827.45 250.65 828.5 250.65
L 830.85 250.65 831.35 252.1
Q 831.65 252.65 832.5 253.1 833.4 253.55 834.35 253.55
L 839.15 253.55
Q 840.15 253.55 840.7 253.1 841.2 252.65 840.95 252.1
L 840.45 250.65 842.8 250.65
Q 843.85 250.65 844.3 250.3 844.8 249.85 844.65 249.2
L 842.85 244.95 845.3 244.95
Q 846.25 244.95 846.8 244.5 847.35 244.05 847.15 243.6
L 846.5 242.1 851.35 242.1 851.9 243.6
Q 852.15 244.05 853 244.5 853.95 244.95 854.9 244.95
L 859.65 244.95
Q 859.9 244.95 860.1 244.95
L 860.1 150.45 857.75 150.45 857.15 149
Q 856.95 148.4 856.1 148.05 855.2736328125 147.5638671875 854.4 147.55 855.16875 147.5375 855.75 147.15 856.25 146.75 856.05 146.15
L 855.45 144.75 857.9 144.75
Q 858.8 144.75 859.4 144.3 859.95 143.85 859.65 143.35
L 859.15 141.9 860.1 141.9 860.1 -78.6 857.05 -78.6 856.5 -80.1
Q 856.2 -80.7 855.3 -81.1 854.5 -81.5 853.5 -81.5
L 846.35 -81.5 844.1 -87.2 846.45 -87.2
Q 847.35 -87.25 847.9 -87.7 848.4 -88.05 848.25 -88.65
L 847.1 -91.55
Q 846.85 -92.15 845.95 -92.45 845.1 -93 844.1 -93
L 841.8 -93 841.1 -94.35
Q 840.9 -94.95 840.1 -95.35 839.2 -95.85 838.2 -95.85
L 830.95 -95.85 830.5 -97.2
Q 830.25 -97.8 829.35 -98.2 828.55 -98.65 827.5 -98.65
L 715.05 -98.65 714.35 -100.1
Q 714.15 -100.75 713.3 -101.05 712.35 -101.5 711.45 -101.5
L 709.1 -101.5 708.45 -103
Q 708.25 -103.55 707.35 -104 706.5 -104.4 705.45 -104.4
L 691.1 -104.4
Q 690.1 -104.4 689.7 -104 689.1 -103.55 689.35 -103
L 689.9 -101.5 685.1 -101.5 684.55 -103
Q 684.35 -103.55 683.45 -104 682.6 -104.4 681.55 -104.4
L 679.2 -104.4 676.85 -110.1 679.35 -110.1
Q 680.25 -110.15 680.75 -110.55 681.3 -111 681.1 -111.55
L 680.55 -113 692.45 -113
Q 693.45 -113 693.95 -113.4 694.55 -113.8 694.35 -114.45
L 693.75 -115.9 696.15 -115.9
Q 697.1 -115.9 697.7 -116.25 698.15 -116.7 698 -117.25
L 697.35 -118.75 699.8 -118.75
Q 700.75 -118.75 701.3 -119.15 701.85 -119.55 701.65 -120.15
L 699.3 -125.9
Q 699 -126.45 698.15 -126.85 697.3 -127.35 696.4 -127.35
L 667.6 -127.35
Q 666.6 -127.35 666.1 -126.85 665.55 -126.45 665.85 -125.9
L 666.4 -124.45 664 -124.45
Q 663 -124.45 662.45 -123.95 661.95 -123.6 662.15 -123.05
L 662.7 -121.55 648.35 -121.55 647.8 -123.05
Q 647.55 -123.6 646.75 -123.95 645.85 -124.45 644.9 -124.45
L 642.45 -124.45 641.35 -127.35 643.7 -127.35
Q 644.65 -127.35 645.2 -127.7 645.75 -128.2 645.5 -128.75
L 645 -130.15 647.3 -130.15
Q 648.25 -130.2 648.85 -130.6 649.35 -130.95 649.1 -131.65
M 180.95 -51.4
L 180.4 -52.85 183.4 -51.4 180.95 -51.4
M 182.25 -24.25
L 182.9 -22.8 180.45 -22.8 182.25 -24.25
M 494.1 -94.35
L 494.7 -93 491.7 -94.35 494.1 -94.35
M 329.1 95.65
Q 329.9 96.05 330.95 96.1
L 347.7 96.1 348.3 97.45
Q 348.4 98.1 349.4 98.5 350.25 98.9 351.3 98.9
L 353.65 98.9 354.2 100.35
Q 354.35 100.85 355.3 101.4 356.0765625 101.73984375 356.95 101.75 356.134375 101.765625 355.65 102.25 355.15 102.6 355.35 103.2
L 357.6 109
Q 357.8 109.45 358.7 109.9 359.5 110.25 360.6 110.35 359.55 110.35 359.1 110.8 358.5 111.25 358.75 111.75
L 359.35 113.2 356.95 113.2
Q 355.95 113.2 355.4 113.65 354.85 114.05 355.15 114.65
L 355.7 116.05 353.35 116.05
Q 352.35 116.05 351.8 116.45 351.25 116.9 351.5 117.55
L 352.1 118.95 349.7 118.95
Q 348.7 118.95 348.2 119.35 347.55 119.75 347.85 120.3
L 348.95 123.2
Q 349.25 123.85 350.15 124.3 350.95 124.65 351.95 124.65
L 354.35 124.65 354.95 126.1
Q 355.15 126.7 356.1 127.15 356.9 127.55 357.85 127.55
L 360.35 127.55 360.8 128.95
Q 361.1 129.6 361.95 129.95 362.8 130.45 363.8 130.45
L 366.2 130.45 366.8 131.85
Q 367 132.35 367.9 132.85 368.75 133.2 369.7 133.25
L 372.15 133.25 373.3 136.1 370.95 136.1
Q 369.95 136.1 369.4 136.55 368.8 137 369.1 137.6
L 369.65 139 367.2 139
Q 366.2 139 365.8 139.35 365.2 139.8 365.45 140.5
L 371.15 154.75
Q 371.35 155.3 372.3 155.7 373.1 156.15 374.15 156.2
L 381.3 156.2 383.55 161.9 381.2 161.9
Q 380.15 161.9 379.75 162.25 379.15 162.75 379.4 163.35
L 379.9 164.8 375.2 164.8 374.65 163.35
Q 374.35 162.75 373.55 162.25 372.65 161.9 371.7 161.9
L 364.45 161.9 363.9 160.5
Q 363.65 159.85 362.7 159.5 361.9 159 360.9 159
L 344.2 159 343.6 157.6
Q 343.35 156.95 342.5 156.65 341.65 156.2 340.65 156.2
L 333.5 156.2 329.95 147.55 332.4 147.55
Q 333.35 147.55 333.95 147.15 334.45 146.75 334.25 146.15
L 333.65 144.75 336.05 144.75
Q 337.05 144.75 337.6 144.3 338.1 143.85 337.9 143.35
L 335.55 137.6
Q 335.3 137 334.45 136.55 333.55 136.1 332.6 136.1
L 330.15 136.1 329.65 134.7
Q 329.4 134.05 328.5 133.75 327.7 133.25 326.65 133.25
L 324.3 133.25 323.7 131.85
Q 323.45 131.25 322.55 130.8 321.7 130.45 320.75 130.45
L 318.3 130.45 317.75 128.95
Q 317.55 128.35 316.65 128 315.8 127.55 314.8 127.55
L 312.45 127.55 311.85 126.1
Q 311.6 125.45 310.65 125.15 309.8 124.65 308.9 124.65
L 306.5 124.65 303.6 117.55
Q 303.35 116.9 302.5 116.45 301.65 116.05 300.65 116.05
L 298.3 116.05 296.55 111.75
Q 296.3 111.25 295.4 110.8 294.6 110.35 293.6 110.35 294.55 110.25 295.1 109.9 295.6 109.45 295.4 109
L 294.85 107.5 297.25 107.5
Q 298.25 107.5 298.75 107.05 299.25 106.65 299.05 106.05
L 298.45 104.7 300.8 104.7
Q 301.85 104.65 302.35 104.2 302.85 103.8 302.65 103.2
L 302.1 101.75 309.25 101.75
Q 310.25 101.75 310.75 101.4 311.3 100.85 311.1 100.35
L 310.55 98.9 317.7 98.9
Q 318.7 98.9 319.25 98.5 319.7 98.1 319.55 97.45
L 318.95 96.1 321.35 96.1
Q 322.3 96.05 322.85 95.65 323.4 95.2 323.1 94.6
L 322.6 93.15 327.4 93.15 327.95 94.6
Q 328.15 95.2 329.1 95.65
M 420.05 234.9
L 417.6 234.9 419.4 233.5 420.05 234.9
M 443.15 244.95
L 442.55 243.6 444.95 243.6 443.15 244.95
M 401.9 309.4
L 399.5 309.4 401.4 308 401.9 309.4
M 525.45 229.2
L 523.6 230.65 523.05 229.2 525.45 229.2
M 546.05 250.65
L 545.45 249.2 547.8 249.2 546.05 250.65
M 199.85 97.45
L 198 98.9 197.45 97.45 199.85 97.45
M 231.9 111.75
L 232.45 113.2 229.5 111.75 231.9 111.75
M 118.8 146.15
L 121.2 146.15 121.75 147.55 118.8 146.15
M 134.25 149
L 131.9 149 131.25 147.55 134.25 149
M 127.1 149
L 127.65 150.45 124.75 149 127.1 149
M 824.45 306.5
L 826.9 306.5 827.5 308 824.45 306.5 Z"/>
</g>

<g id="graphics_office_building_back_0_Layer4_0_FILL">
<path fill="url(#Gradient_4)" stroke="none" d="
M 384.05 443.2
L 384.05 433.15 355.4 433.15 355.4 443.2 365.3 443.2 365.3 464.2 403.85 464.2 403.85 453.25 393.95 453.25 393.95 443.2 384.05 443.2 Z"/>

<path fill="#E09A6D" stroke="none" d="
M 458.45 443.2
L 448.45 443.2 393.95 443.2 393.95 453.25 403.85 453.25 403.85 464.2 458.45 464.2 458.45 443.2 Z"/>

<path fill="url(#Gradient_5)" stroke="none" d="
M 9.9 443.2
L 0 443.2 0 464.2 365.3 464.2 365.3 443.2 355.4 443.2 9.9 443.2 Z"/>

<path fill="url(#Gradient_6)" stroke="none" d="
M 189.9 30.5
L 189.9 22.6 27.5 22.6 27.5 30.5 189.9 30.5
M 189.9 17.6
L 189.9 10 27.5 10 27.5 17.6 189.9 17.6 Z"/>

<path fill="url(#Gradient_7)" stroke="none" d="
M 192.35 17.6
L 189.9 17.6 27.5 17.6 25 17.6 25 22.6 27.5 22.6 189.9 22.6 192.35 22.6 192.35 17.6 Z"/>

<path fill="url(#Gradient_8)" stroke="none" d="
M 194.9 5
L 194.9 0 22.5 0 22.5 5 27.5 5 27.5 10 189.9 10 189.9 5 194.9 5 Z"/>

<path fill="url(#Gradient_9)" stroke="none" d="
M 448.45 174.5
L 355.4 174.5 355.4 433.15 384.05 433.15 384.05 443.2 393.95 443.2 448.45 443.2 448.45 174.5
M 355.4 161.9
L 355.4 169.5 448.45 169.5 448.45 161.9 355.4 161.9 Z"/>

<path fill="url(#Gradient_10)" stroke="none" d="
M 355.4 151.9
L 355.4 161.9 448.45 161.9 448.45 156.9 453.45 156.9 453.45 151.9 355.4 151.9 Z"/>

<path fill="url(#Gradient_11)" stroke="none" d="
M 355.4 174.5
L 355.4 169.5 355.4 161.9 355.4 151.9 355.4 40.5 9.9 40.5 9.9 443.2 355.4 443.2 355.4 433.15 355.4 174.5
M 346.75 170.6
L 346.75 181.1 346.75 181.15 346.75 302.2 346.75 312.7 346.75 433.1 18.5 433.1 18.55 312.75 18.5 312.7 18.5 302.2 18.55 181.15 18.5 181.1 18.5 170.6 18.55 170.65 18.55 170.6 18.5 50.55 346.75 50.55 346.75 170.6 Z"/>

<path fill="#F8E7DC" stroke="none" d="
M 18.5 312.7
L 18.55 312.75 18.5 433.1 346.75 433.1 346.75 312.7 18.5 312.7
M 346.75 302.2
L 346.75 181.15 18.55 181.15 18.5 302.2 346.75 302.2
M 346.75 170.6
L 346.75 50.55 18.5 50.55 18.55 170.6 346.75 170.6 Z"/>

<path fill="#643D2D" stroke="none" d="
M 346.75 312.7
L 346.75 302.2 18.5 302.2 18.5 312.7 346.75 312.7
M 346.75 181.1
L 346.75 170.6 18.55 170.6 18.55 170.65 18.5 170.6 18.5 181.1 346.75 181.1 Z"/>

<path fill="url(#Gradient_12)" stroke="none" d="
M 355.4 169.5
L 355.4 174.5 448.45 174.5 450.9 174.5 450.9 169.5 448.45 169.5 355.4 169.5 Z"/>

<path fill="url(#Gradient_13)" stroke="none" d="
M 355.4 40.5
L 355.4 35.5 360.4 35.5 360.4 30.5 189.9 30.5 27.5 30.5 4.9 30.5 4.9 35.5 9.9 35.5 9.9 40.5 355.4 40.5 Z"/>
</g>

<g id="graphics_office_building_back_0_Layer3_0_FILL">
<path fill="#663333" fill-opacity="0.30196078431372547" stroke="none" d="
M 357.4 433.15
L 355.4 433.15 355.4 443.15 357.4 443.15 357.4 433.15
M 367.3 443.2
L 365.3 443.2 365.3 464.2 367.3 464.2 367.3 443.2
M 396 443.2
L 394 443.2 394 453.2 396 453.2 396 443.2
M 386 433.15
L 384 433.15 384 443.15 386 443.15 386 433.15
M 405.9 464.15
L 405.9 453.25 403.9 453.25 403.9 464.15 405.9 464.15
M 438.65 174.5
L 436.65 174.5 436.65 443.2 438.65 443.2 438.65 174.5
M 366.45 174.5
L 364.45 174.5 364.45 433.2 366.45 433.2 366.45 174.5 Z"/>
</g>

<g id="graphics_office_building_back_0_Layer3_1_FILL">
<path fill="#663333" fill-opacity="0.30196078431372547" stroke="none" d="
M 366.45 174.5
L 364.45 174.5 364.45 433.2 366.45 433.2 366.45 174.5 Z"/>
</g>

<g id="graphics_office_building_back_0_Layer2_0_FILL">
<path fill="#663333" fill-opacity="0.30196078431372547" stroke="none" d="
M 189.9 24.6
L 189.9 22.6 27.5 22.6 27.5 24.6 189.9 24.6
M 189.9 12
L 189.9 10 27.5 10 27.5 12 189.9 12
M 448.4 242.85
L 448.4 240.85 355.4 240.85 355.4 242.85 448.4 242.85
M 355.4 190.4
L 355.4 192.4 448.4 192.4 448.4 190.4 355.4 190.4
M 355.4 174.5
L 355.4 176.5 448.4 176.5 448.4 174.5 355.4 174.5
M 355.4 161.9
L 355.4 163.9 448.4 163.9 448.4 161.9 355.4 161.9
M 355.4 42.5
L 355.4 40.5 9.9 40.5 9.9 42.5 355.4 42.5 Z"/>
</g>

<g id="graphics_office_building_back_0_Layer2_1_FILL">
<path fill="#663333" fill-opacity="0.30196078431372547" stroke="none" d="
M 355.4 190.4
L 355.4 192.4 448.4 192.4 448.4 190.4 355.4 190.4 Z"/>
</g>

<g id="graphics_office_building_back_0_Layer2_2_FILL">
<path fill="#663333" fill-opacity="0.30196078431372547" stroke="none" d="
M 355.4 174.5
L 355.4 176.5 448.4 176.5 448.4 174.5 355.4 174.5 Z"/>
</g>

<g id="graphics_bldg_side_window_0_Layer1_0_FILL">
<path fill="url(#Gradient_14)" stroke="none" d="
M 0 52.5
L 74.15 52.5 74.15 0 0 0 0 52.5
M 52.7 1.3
L 52.7 18.8 1.85 18.8 1.85 1.3 52.7 1.3
M 54.8 20.9
L 72.3 20.9 72.3 51.15 54.8 51.15 54.8 20.9
M 72.3 18.8
L 54.8 18.8 54.8 1.3 72.3 1.3 72.3 18.8
M 52.7 51.15
L 1.85 51.15 1.85 20.9 52.7 20.9 52.7 51.15 Z"/>

<path fill="url(#Gradient_15)" stroke="none" d="
M 1.85 51.15
L 52.7 51.15 52.7 20.9 1.85 20.9 1.85 51.15 Z"/>

<path fill="url(#Gradient_16)" stroke="none" d="
M 54.8 18.8
L 72.3 18.8 72.3 1.3 54.8 1.3 54.8 18.8 Z"/>

<path fill="url(#Gradient_17)" stroke="none" d="
M 72.3 20.9
L 54.8 20.9 54.8 51.15 72.3 51.15 72.3 20.9 Z"/>

<path fill="url(#Gradient_18)" stroke="none" d="
M 52.7 18.8
L 52.7 1.3 1.85 1.3 1.85 18.8 52.7 18.8 Z"/>

<path fill="url(#Gradient_19)" stroke="none" d="
M 0 52.5
L 0 57.5 74.15 57.5 74.15 52.5 0 52.5 Z"/>
</g>

<g id="graphics_bldg_side_window_0_Layer0_0_FILL">
<path fill="url(#Gradient_20)" stroke="none" d="
M 0.05 57.55
L 0.15 57.4 0 57.5 0.05 57.55 Z"/>
</g>

<g id="graphics_office_building_stair_rail_0_Layer0_0_FILL">
<path fill="url(#Gradient_21)" stroke="none" d="
M 26.25 30.15
L 26.25 5.6 23.55 2.8 23.55 30.15 26.25 30.15 Z"/>

<path fill="url(#Gradient_22)" stroke="none" d="
M 23.55 2.8
L 23.55 0 0 0 0 2.8 23.55 2.8 Z"/>

<path fill="url(#Gradient_23)" stroke="none" d="
M 46.2 26.3
L 43.5 23.5 43.5 50.25 46.2 50.25 46.2 26.3 Z"/>

<path fill="url(#Gradient_24)" stroke="none" d="
M 43.5 23.5
L 46.2 26.3 49.35 29.6
Q 50.8359375 28.94296875 49.35 26.8
L 23.55 0 23.55 2.8 26.25 5.6 43.5 23.5 Z"/>
</g>

<g id="graphics_office_bldg_front_0_Layer4_0_FILL">
<path fill="url(#Gradient_25)" stroke="none" d="
M 355.4 22.7
L 9.9 22.7 9.9 412.7 355.4 412.7 355.4 22.7 Z"/>

<path fill="url(#Gradient_26)" stroke="none" d="
M 9.9 412.7
L 0 412.7 0 433.7 365.3 433.7 365.3 412.7 355.4 412.7 9.9 412.7 Z"/>

<path fill="url(#Gradient_27)" stroke="none" d="
M 357.85 17.7
L 355.4 17.7 9.9 17.7 7.35 17.7 7.35 22.7 9.9 22.7 355.4 22.7 357.9 22.7 357.85 17.7 Z"/>

<path fill="url(#Gradient_28)" stroke="none" d="
M 355.4 17.7
L 355.4 10 9.9 10 9.9 17.7 355.4 17.7 Z"/>

<path fill="url(#Gradient_29)" stroke="none" d="
M 355.4 10
L 355.4 5 360.4 5 360.4 0 4.9 0 4.9 5 9.9 5 9.9 10 355.4 10 Z"/>
</g>

<g id="graphics_office_bldg_front_0_Layer3_0_FILL">
<path fill="#663333" fill-opacity="0.30196078431372547" stroke="none" d="
M 47.9 22.7
L 45.9 22.7 45.9 412.7 47.9 412.7 47.9 22.7
M 120.1 22.7
L 118.1 22.7 118.1 412.7 120.1 412.7 120.1 22.7
M 147.9 22.7
L 145.9 22.7 145.9 412.7 147.9 412.7 147.9 22.7
M 220.1 22.7
L 218.1 22.7 218.1 412.7 220.1 412.7 220.1 22.7
M 247.9 22.7
L 245.9 22.7 245.9 412.7 247.9 412.7 247.9 22.7
M 320.1 22.7
L 318.1 22.7 318.1 412.7 320.1 412.7 320.1 22.7 Z"/>
</g>

<g id="graphics_office_bldg_front_0_Layer2_0_FILL">
<path fill="#663333" fill-opacity="0.30196078431372547" stroke="none" d="
M 355.4 344.7
L 355.4 342.7 9.9 342.7 9.9 344.7 355.4 344.7
M 355.4 294.3
L 355.4 292.3 9.9 292.3 9.9 294.3 355.4 294.3
M 355.4 212.3
L 355.4 210.3 9.9 210.3 9.9 212.3 355.4 212.3
M 355.4 161.9
L 355.4 159.9 9.9 159.9 9.9 161.9 355.4 161.9
M 355.4 88.3
L 355.4 86.3 9.9 86.3 9.9 88.3 355.4 88.3
M 355.4 11.95
L 355.4 9.95 9.9 9.95 9.9 11.95 355.4 11.95
M 355.4 37.9
L 355.4 35.9 9.9 35.9 9.9 37.9 355.4 37.9 Z"/>
</g>

<g id="graphics_office_bldg_front_0_Layer2_1_FILL">
<path fill="#663333" fill-opacity="0.30196078431372547" stroke="none" d="
M 355.4 37.9
L 355.4 35.9 9.9 35.9 9.9 37.9 355.4 37.9 Z"/>
</g>

<g id="graphics_bldg_front_window_0_Layer0_0_FILL">
<path fill="url(#Gradient_14)" stroke="none" d="
M 74.15 52.5
L 74.15 0 0 0 0 52.5 74.15 52.5
M 72.3 1.3
L 72.3 18.8 38.05 18.8 38.05 1.3 72.3 1.3
M 1.85 20.9
L 35.95 20.9 35.95 51.2 1.85 51.15 1.85 20.9
M 35.95 1.3
L 35.95 18.8 1.85 18.8 1.85 1.3 35.95 1.3
M 54.8 51.15
L 54.8 51.2 38.05 51.2 38.05 20.9 72.3 20.9 72.3 51.15 54.8 51.15 Z"/>

<path fill="url(#Gradient_30)" stroke="none" d="
M 54.8 51.2
L 54.8 51.15 72.3 51.15 72.3 20.9 38.05 20.9 38.05 51.2 54.8 51.2 Z"/>

<path fill="url(#Gradient_31)" stroke="none" d="
M 35.95 18.8
L 35.95 1.3 1.85 1.3 1.85 18.8 35.95 18.8 Z"/>

<path fill="url(#Gradient_32)" stroke="none" d="
M 35.95 20.9
L 1.85 20.9 1.85 51.15 35.95 51.2 35.95 20.9 Z"/>

<path fill="url(#Gradient_33)" stroke="none" d="
M 72.3 18.8
L 72.3 1.3 38.05 1.3 38.05 18.8 72.3 18.8 Z"/>

<path fill="url(#Gradient_34)" stroke="none" d="
M 0 52.5
L 0 57.5 0.15 57.4 74.15 57.4 74.15 52.5 0 52.5 Z"/>
</g>
</defs>

<g transform="matrix( 1, 0, 0, 1, -138,-84) ">
<g transform="matrix( 0.5088653564453125, 0, 0, 0.5088653564453125, 92.4,166.5) ">
<g transform="matrix( 1, 0, 0, 1, 0,0) ">
<use xlink:href="#graphics_uid739e5988_graphics_c7cd1xz2sbszu1w09a4vmgraphics_2qxnd5t91lls01mc7h1o6graphics_world_map_0_Layer1_0_FILL"/>
</g>

<g transform="matrix( 1, 0, 0, 1, 0,0) ">
<use xlink:href="#graphics_uid739e5988_graphics_c7cd1xz2sbszu1w09a4vmgraphics_2qxnd5t91lls01mc7h1o6graphics_world_map_0_Layer0_0_FILL"/>
</g>
</g>

<g transform="matrix( 0.182159423828125, 0, 0, 0.182159423828125, 180.35,243.1) ">
<g transform="matrix( 0.9998931884765625, 0, 0, 1, 0,0) ">
<g transform="matrix( 1, 0, 0, 1, 0,0) ">
<use xlink:href="#graphics_office_building_back_0_Layer4_0_FILL"/>
</g>

<g transform="matrix( 1, 0, 0, 1, 0,0) ">
<use xlink:href="#graphics_office_building_back_0_Layer3_0_FILL"/>
</g>

<g transform="matrix( 1, 0, 0, 1, -9.1,0) ">
<use xlink:href="#graphics_office_building_back_0_Layer3_1_FILL"/>
</g>

<g transform="matrix( 1, 0, 0, 1, 0,0) ">
<use xlink:href="#graphics_office_building_back_0_Layer2_0_FILL"/>
</g>

<g transform="matrix( 1, 0, 0, 1, 0,132.25) ">
<use xlink:href="#graphics_office_building_back_0_Layer2_1_FILL"/>
</g>

<g transform="matrix( 1, 0, 0, 1, 0,198.6) ">
<use xlink:href="#graphics_office_building_back_0_Layer2_2_FILL"/>
</g>

<g transform="matrix( 0.9998931884765625, 0, 0, 1, 366.35,192.5) ">
<g transform="matrix( 1, 0, 0, 1, 0,0) ">
<use filter="url(#Filter_1)" xlink:href="#graphics_bldg_side_window_0_Layer1_0_FILL"/>
</g>

<g transform="matrix( 1, 0, 0, 1, 0,0) ">
<use filter="url(#Filter_1)" xlink:href="#graphics_bldg_side_window_0_Layer0_0_FILL"/>
</g>
</g>

<g transform="matrix( 0.9998931884765625, 0, 0, 1, 366.4,324.8) ">
<g transform="matrix( 1, 0, 0, 1, 0,0) ">
<use filter="url(#Filter_1)" xlink:href="#graphics_bldg_side_window_0_Layer1_0_FILL"/>
</g>

<g transform="matrix( 1, 0, 0, 1, 0,0) ">
<use filter="url(#Filter_1)" xlink:href="#graphics_bldg_side_window_0_Layer0_0_FILL"/>
</g>
</g>

<g transform="matrix( 0.9998931884765625, 0, 0, 1, 364.55,190.4) ">
<g transform="matrix( 1, 0, 0, 1, 0,0) ">
<use xlink:href="#graphics_bldg_side_window_0_Layer1_0_FILL"/>
</g>

<g transform="matrix( 1, 0, 0, 1, 0,0) ">
<use xlink:href="#graphics_bldg_side_window_0_Layer0_0_FILL"/>
</g>
</g>

<g transform="matrix( 0.9998931884765625, 0, 0, 1, 364.6,322.7) ">
<g transform="matrix( 1, 0, 0, 1, 0,0) ">
<use xlink:href="#graphics_bldg_side_window_0_Layer1_0_FILL"/>
</g>

<g transform="matrix( 1, 0, 0, 1, 0,0) ">
<use xlink:href="#graphics_bldg_side_window_0_Layer0_0_FILL"/>
</g>
</g>
</g>

<g transform="matrix( 0.9998931884765625, 0, 0, 1, 355.35,403) ">
<g transform="matrix( 1, 0, 0, 1, 0,0) ">
<use xlink:href="#graphics_office_building_stair_rail_0_Layer0_0_FILL"/>
</g>
</g>

<g transform="matrix( 0.9998931884765625, 0, 0, 1, 0,30.5) ">
<g transform="matrix( 1, 0, 0, 1, 0,0) ">
<use xlink:href="#graphics_office_bldg_front_0_Layer4_0_FILL"/>
</g>

<g transform="matrix( 1, 0, 0, 1, 0,0) ">
<use xlink:href="#graphics_office_bldg_front_0_Layer3_0_FILL"/>
</g>

<g transform="matrix( 1, 0, 0, 1, 0,0) ">
<use xlink:href="#graphics_office_bldg_front_0_Layer2_0_FILL"/>
</g>

<g transform="matrix( 1, 0, 0, 1, 0,-13.25) ">
<use xlink:href="#graphics_office_bldg_front_0_Layer2_1_FILL"/>
</g>

<g transform="matrix( 1.00067138671875, 0, 0, 1, 247.8,162.3) ">
<g transform="matrix( 1, 0, 0, 1, 0,0) ">
<use filter="url(#Filter_1)" xlink:href="#graphics_bldg_front_window_0_Layer0_0_FILL"/>
</g>
</g>

<g transform="matrix( 1.00067138671875, 0, 0, 1, 147.8,162.3) ">
<g transform="matrix( 1, 0, 0, 1, 0,0) ">
<use filter="url(#Filter_1)" xlink:href="#graphics_bldg_front_window_0_Layer0_0_FILL"/>
</g>
</g>

<g transform="matrix( 1.00067138671875, 0, 0, 1, 47.8,162.3) ">
<g transform="matrix( 1, 0, 0, 1, 0,0) ">
<use filter="url(#Filter_1)" xlink:href="#graphics_bldg_front_window_0_Layer0_0_FILL"/>
</g>
</g>

<g transform="matrix( 1.00067138671875, 0, 0, 1, 247.8,294.6) ">
<g transform="matrix( 1, 0, 0, 1, 0,0) ">
<use filter="url(#Filter_1)" xlink:href="#graphics_bldg_front_window_0_Layer0_0_FILL"/>
</g>
</g>

<g transform="matrix( 1.00067138671875, 0, 0, 1, 147.8,294.6) ">
<g transform="matrix( 1, 0, 0, 1, 0,0) ">
<use filter="url(#Filter_1)" xlink:href="#graphics_bldg_front_window_0_Layer0_0_FILL"/>
</g>
</g>

<g transform="matrix( 1.00067138671875, 0, 0, 1, 47.8,294.6) ">
<g transform="matrix( 1, 0, 0, 1, 0,0) ">
<use filter="url(#Filter_1)" xlink:href="#graphics_bldg_front_window_0_Layer0_0_FILL"/>
</g>
</g>

<g transform="matrix( 1.00067138671875, 0, 0, 1, 247.8,38.3) ">
<g transform="matrix( 1, 0, 0, 1, 0,0) ">
<use filter="url(#Filter_1)" xlink:href="#graphics_bldg_front_window_0_Layer0_0_FILL"/>
</g>
</g>

<g transform="matrix( 1.00067138671875, 0, 0, 1, 147.8,38.3) ">
<g transform="matrix( 1, 0, 0, 1, 0,0) ">
<use filter="url(#Filter_1)" xlink:href="#graphics_bldg_front_window_0_Layer0_0_FILL"/>
</g>
</g>

<g transform="matrix( 1.00067138671875, 0, 0, 1, 47.8,38.3) ">
<g transform="matrix( 1, 0, 0, 1, 0,0) ">
<use filter="url(#Filter_1)" xlink:href="#graphics_bldg_front_window_0_Layer0_0_FILL"/>
</g>
</g>

<g transform="matrix( 1.00067138671875, 0, 0, 1, 245.9,159.9) ">
<g transform="matrix( 1, 0, 0, 1, 0,0) ">
<use xlink:href="#graphics_bldg_front_window_0_Layer0_0_FILL"/>
</g>
</g>

<g transform="matrix( 1.00067138671875, 0, 0, 1, 145.9,159.9) ">
<g transform="matrix( 1, 0, 0, 1, 0,0) ">
<use xlink:href="#graphics_bldg_front_window_0_Layer0_0_FILL"/>
</g>
</g>

<g transform="matrix( 1.00067138671875, 0, 0, 1, 45.9,159.9) ">
<g transform="matrix( 1, 0, 0, 1, 0,0) ">
<use xlink:href="#graphics_bldg_front_window_0_Layer0_0_FILL"/>
</g>
</g>

<g transform="matrix( 1.00067138671875, 0, 0, 1, 245.9,292.2) ">
<g transform="matrix( 1, 0, 0, 1, 0,0) ">
<use xlink:href="#graphics_bldg_front_window_0_Layer0_0_FILL"/>
</g>
</g>

<g transform="matrix( 1.00067138671875, 0, 0, 1, 145.9,292.2) ">
<g transform="matrix( 1, 0, 0, 1, 0,0) ">
<use xlink:href="#graphics_bldg_front_window_0_Layer0_0_FILL"/>
</g>
</g>

<g transform="matrix( 1.00067138671875, 0, 0, 1, 45.9,292.2) ">
<g transform="matrix( 1, 0, 0, 1, 0,0) ">
<use xlink:href="#graphics_bldg_front_window_0_Layer0_0_FILL"/>
</g>
</g>

<g transform="matrix( 1.00067138671875, 0, 0, 1, 245.9,35.9) ">
<g transform="matrix( 1, 0, 0, 1, 0,0) ">
<use xlink:href="#graphics_bldg_front_window_0_Layer0_0_FILL"/>
</g>
</g>

<g transform="matrix( 1.00067138671875, 0, 0, 1, 145.9,35.9) ">
<g transform="matrix( 1, 0, 0, 1, 0,0) ">
<use xlink:href="#graphics_bldg_front_window_0_Layer0_0_FILL"/>
</g>
</g>

<g transform="matrix( 1.00067138671875, 0, 0, 1, 45.9,35.9) ">
<g transform="matrix( 1, 0, 0, 1, 0,0) ">
<use xlink:href="#graphics_bldg_front_window_0_Layer0_0_FILL"/>
</g>
</g>
</g>
</g>

<g transform="matrix( 0.12420654296875, 0, 0, 0.1242218017578125, 441.7,217.25) ">
<g transform="matrix( 0.9998931884765625, 0, 0, 1, 0,0) ">
<g transform="matrix( 1, 0, 0, 1, 0,0) ">
<use xlink:href="#graphics_office_building_back_0_Layer4_0_FILL"/>
</g>

<g transform="matrix( 1, 0, 0, 1, 0,0) ">
<use xlink:href="#graphics_office_building_back_0_Layer3_0_FILL"/>
</g>

<g transform="matrix( 1, 0, 0, 1, -9.1,0) ">
<use xlink:href="#graphics_office_building_back_0_Layer3_1_FILL"/>
</g>

<g transform="matrix( 1, 0, 0, 1, 0,0) ">
<use xlink:href="#graphics_office_building_back_0_Layer2_0_FILL"/>
</g>

<g transform="matrix( 1, 0, 0, 1, 0,132.25) ">
<use xlink:href="#graphics_office_building_back_0_Layer2_1_FILL"/>
</g>

<g transform="matrix( 1, 0, 0, 1, 0,198.6) ">
<use xlink:href="#graphics_office_building_back_0_Layer2_2_FILL"/>
</g>

<g transform="matrix( 0.9998931884765625, 0, 0, 1, 366.35,192.5) ">
<g transform="matrix( 1, 0, 0, 1, 0,0) ">
<use filter="url(#Filter_1)" xlink:href="#graphics_bldg_side_window_0_Layer1_0_FILL"/>
</g>

<g transform="matrix( 1, 0, 0, 1, 0,0) ">
<use filter="url(#Filter_1)" xlink:href="#graphics_bldg_side_window_0_Layer0_0_FILL"/>
</g>
</g>

<g transform="matrix( 0.9998931884765625, 0, 0, 1, 366.4,324.8) ">
<g transform="matrix( 1, 0, 0, 1, 0,0) ">
<use filter="url(#Filter_1)" xlink:href="#graphics_bldg_side_window_0_Layer1_0_FILL"/>
</g>

<g transform="matrix( 1, 0, 0, 1, 0,0) ">
<use filter="url(#Filter_1)" xlink:href="#graphics_bldg_side_window_0_Layer0_0_FILL"/>
</g>
</g>

<g transform="matrix( 0.9998931884765625, 0, 0, 1, 364.55,190.4) ">
<g transform="matrix( 1, 0, 0, 1, 0,0) ">
<use xlink:href="#graphics_bldg_side_window_0_Layer1_0_FILL"/>
</g>

<g transform="matrix( 1, 0, 0, 1, 0,0) ">
<use xlink:href="#graphics_bldg_side_window_0_Layer0_0_FILL"/>
</g>
</g>

<g transform="matrix( 0.9998931884765625, 0, 0, 1, 364.6,322.7) ">
<g transform="matrix( 1, 0, 0, 1, 0,0) ">
<use xlink:href="#graphics_bldg_side_window_0_Layer1_0_FILL"/>
</g>

<g transform="matrix( 1, 0, 0, 1, 0,0) ">
<use xlink:href="#graphics_bldg_side_window_0_Layer0_0_FILL"/>
</g>
</g>
</g>

<g transform="matrix( 0.9998931884765625, 0, 0, 1, 355.35,403) ">
<g transform="matrix( 1, 0, 0, 1, 0,0) ">
<use xlink:href="#graphics_office_building_stair_rail_0_Layer0_0_FILL"/>
</g>
</g>

<g transform="matrix( 0.9998931884765625, 0, 0, 1, 0,30.5) ">
<g transform="matrix( 1, 0, 0, 1, 0,0) ">
<use xlink:href="#graphics_office_bldg_front_0_Layer4_0_FILL"/>
</g>

<g transform="matrix( 1, 0, 0, 1, 0,0) ">
<use xlink:href="#graphics_office_bldg_front_0_Layer3_0_FILL"/>
</g>

<g transform="matrix( 1, 0, 0, 1, 0,0) ">
<use xlink:href="#graphics_office_bldg_front_0_Layer2_0_FILL"/>
</g>

<g transform="matrix( 1, 0, 0, 1, 0,-13.25) ">
<use xlink:href="#graphics_office_bldg_front_0_Layer2_1_FILL"/>
</g>

<g transform="matrix( 1.00067138671875, 0, 0, 1, 247.8,162.3) ">
<g transform="matrix( 1, 0, 0, 1, 0,0) ">
<use filter="url(#Filter_1)" xlink:href="#graphics_bldg_front_window_0_Layer0_0_FILL"/>
</g>
</g>

<g transform="matrix( 1.00067138671875, 0, 0, 1, 147.8,162.3) ">
<g transform="matrix( 1, 0, 0, 1, 0,0) ">
<use filter="url(#Filter_1)" xlink:href="#graphics_bldg_front_window_0_Layer0_0_FILL"/>
</g>
</g>

<g transform="matrix( 1.00067138671875, 0, 0, 1, 47.8,162.3) ">
<g transform="matrix( 1, 0, 0, 1, 0,0) ">
<use filter="url(#Filter_1)" xlink:href="#graphics_bldg_front_window_0_Layer0_0_FILL"/>
</g>
</g>

<g transform="matrix( 1.00067138671875, 0, 0, 1, 247.8,294.6) ">
<g transform="matrix( 1, 0, 0, 1, 0,0) ">
<use filter="url(#Filter_1)" xlink:href="#graphics_bldg_front_window_0_Layer0_0_FILL"/>
</g>
</g>

<g transform="matrix( 1.00067138671875, 0, 0, 1, 147.8,294.6) ">
<g transform="matrix( 1, 0, 0, 1, 0,0) ">
<use filter="url(#Filter_1)" xlink:href="#graphics_bldg_front_window_0_Layer0_0_FILL"/>
</g>
</g>

<g transform="matrix( 1.00067138671875, 0, 0, 1, 47.8,294.6) ">
<g transform="matrix( 1, 0, 0, 1, 0,0) ">
<use filter="url(#Filter_1)" xlink:href="#graphics_bldg_front_window_0_Layer0_0_FILL"/>
</g>
</g>

<g transform="matrix( 1.00067138671875, 0, 0, 1, 247.8,38.3) ">
<g transform="matrix( 1, 0, 0, 1, 0,0) ">
<use filter="url(#Filter_1)" xlink:href="#graphics_bldg_front_window_0_Layer0_0_FILL"/>
</g>
</g>

<g transform="matrix( 1.00067138671875, 0, 0, 1, 147.8,38.3) ">
<g transform="matrix( 1, 0, 0, 1, 0,0) ">
<use filter="url(#Filter_1)" xlink:href="#graphics_bldg_front_window_0_Layer0_0_FILL"/>
</g>
</g>

<g transform="matrix( 1.00067138671875, 0, 0, 1, 47.8,38.3) ">
<g transform="matrix( 1, 0, 0, 1, 0,0) ">
<use filter="url(#Filter_1)" xlink:href="#graphics_bldg_front_window_0_Layer0_0_FILL"/>
</g>
</g>

<g transform="matrix( 1.00067138671875, 0, 0, 1, 245.9,159.9) ">
<g transform="matrix( 1, 0, 0, 1, 0,0) ">
<use xlink:href="#graphics_bldg_front_window_0_Layer0_0_FILL"/>
</g>
</g>

<g transform="matrix( 1.00067138671875, 0, 0, 1, 145.9,159.9) ">
<g transform="matrix( 1, 0, 0, 1, 0,0) ">
<use xlink:href="#graphics_bldg_front_window_0_Layer0_0_FILL"/>
</g>
</g>

<g transform="matrix( 1.00067138671875, 0, 0, 1, 45.9,159.9) ">
<g transform="matrix( 1, 0, 0, 1, 0,0) ">
<use xlink:href="#graphics_bldg_front_window_0_Layer0_0_FILL"/>
</g>
</g>

<g transform="matrix( 1.00067138671875, 0, 0, 1, 245.9,292.2) ">
<g transform="matrix( 1, 0, 0, 1, 0,0) ">
<use xlink:href="#graphics_bldg_front_window_0_Layer0_0_FILL"/>
</g>
</g>

<g transform="matrix( 1.00067138671875, 0, 0, 1, 145.9,292.2) ">
<g transform="matrix( 1, 0, 0, 1, 0,0) ">
<use xlink:href="#graphics_bldg_front_window_0_Layer0_0_FILL"/>
</g>
</g>

<g transform="matrix( 1.00067138671875, 0, 0, 1, 45.9,292.2) ">
<g transform="matrix( 1, 0, 0, 1, 0,0) ">
<use xlink:href="#graphics_bldg_front_window_0_Layer0_0_FILL"/>
</g>
</g>

<g transform="matrix( 1.00067138671875, 0, 0, 1, 245.9,35.9) ">
<g transform="matrix( 1, 0, 0, 1, 0,0) ">
<use xlink:href="#graphics_bldg_front_window_0_Layer0_0_FILL"/>
</g>
</g>

<g transform="matrix( 1.00067138671875, 0, 0, 1, 145.9,35.9) ">
<g transform="matrix( 1, 0, 0, 1, 0,0) ">
<use xlink:href="#graphics_bldg_front_window_0_Layer0_0_FILL"/>
</g>
</g>

<g transform="matrix( 1.00067138671875, 0, 0, 1, 45.9,35.9) ">
<g transform="matrix( 1, 0, 0, 1, 0,0) ">
<use xlink:href="#graphics_bldg_front_window_0_Layer0_0_FILL"/>
</g>
</g>
</g>
</g>

<g transform="matrix( 0.12420654296875, 0, 0, 0.12420654296875, 305.5,192.85) ">
<g transform="matrix( 0.9998931884765625, 0, 0, 1, 0,0) ">
<g transform="matrix( 1, 0, 0, 1, 0,0) ">
<use xlink:href="#graphics_office_building_back_0_Layer4_0_FILL"/>
</g>

<g transform="matrix( 1, 0, 0, 1, 0,0) ">
<use xlink:href="#graphics_office_building_back_0_Layer3_0_FILL"/>
</g>

<g transform="matrix( 1, 0, 0, 1, -9.1,0) ">
<use xlink:href="#graphics_office_building_back_0_Layer3_1_FILL"/>
</g>

<g transform="matrix( 1, 0, 0, 1, 0,0) ">
<use xlink:href="#graphics_office_building_back_0_Layer2_0_FILL"/>
</g>

<g transform="matrix( 1, 0, 0, 1, 0,132.25) ">
<use xlink:href="#graphics_office_building_back_0_Layer2_1_FILL"/>
</g>

<g transform="matrix( 1, 0, 0, 1, 0,198.6) ">
<use xlink:href="#graphics_office_building_back_0_Layer2_2_FILL"/>
</g>

<g transform="matrix( 0.9998931884765625, 0, 0, 1, 366.35,192.5) ">
<g transform="matrix( 1, 0, 0, 1, 0,0) ">
<use filter="url(#Filter_1)" xlink:href="#graphics_bldg_side_window_0_Layer1_0_FILL"/>
</g>

<g transform="matrix( 1, 0, 0, 1, 0,0) ">
<use filter="url(#Filter_1)" xlink:href="#graphics_bldg_side_window_0_Layer0_0_FILL"/>
</g>
</g>

<g transform="matrix( 0.9998931884765625, 0, 0, 1, 366.4,324.8) ">
<g transform="matrix( 1, 0, 0, 1, 0,0) ">
<use filter="url(#Filter_1)" xlink:href="#graphics_bldg_side_window_0_Layer1_0_FILL"/>
</g>

<g transform="matrix( 1, 0, 0, 1, 0,0) ">
<use filter="url(#Filter_1)" xlink:href="#graphics_bldg_side_window_0_Layer0_0_FILL"/>
</g>
</g>

<g transform="matrix( 0.9998931884765625, 0, 0, 1, 364.55,190.4) ">
<g transform="matrix( 1, 0, 0, 1, 0,0) ">
<use xlink:href="#graphics_bldg_side_window_0_Layer1_0_FILL"/>
</g>

<g transform="matrix( 1, 0, 0, 1, 0,0) ">
<use xlink:href="#graphics_bldg_side_window_0_Layer0_0_FILL"/>
</g>
</g>

<g transform="matrix( 0.9998931884765625, 0, 0, 1, 364.6,322.7) ">
<g transform="matrix( 1, 0, 0, 1, 0,0) ">
<use xlink:href="#graphics_bldg_side_window_0_Layer1_0_FILL"/>
</g>

<g transform="matrix( 1, 0, 0, 1, 0,0) ">
<use xlink:href="#graphics_bldg_side_window_0_Layer0_0_FILL"/>
</g>
</g>
</g>

<g transform="matrix( 0.9998931884765625, 0, 0, 1, 355.35,403) ">
<g transform="matrix( 1, 0, 0, 1, 0,0) ">
<use xlink:href="#graphics_office_building_stair_rail_0_Layer0_0_FILL"/>
</g>
</g>

<g transform="matrix( 0.9998931884765625, 0, 0, 1, 0,30.5) ">
<g transform="matrix( 1, 0, 0, 1, 0,0) ">
<use xlink:href="#graphics_office_bldg_front_0_Layer4_0_FILL"/>
</g>

<g transform="matrix( 1, 0, 0, 1, 0,0) ">
<use xlink:href="#graphics_office_bldg_front_0_Layer3_0_FILL"/>
</g>

<g transform="matrix( 1, 0, 0, 1, 0,0) ">
<use xlink:href="#graphics_office_bldg_front_0_Layer2_0_FILL"/>
</g>

<g transform="matrix( 1, 0, 0, 1, 0,-13.25) ">
<use xlink:href="#graphics_office_bldg_front_0_Layer2_1_FILL"/>
</g>

<g transform="matrix( 1.00067138671875, 0, 0, 1, 247.8,162.3) ">
<g transform="matrix( 1, 0, 0, 1, 0,0) ">
<use filter="url(#Filter_1)" xlink:href="#graphics_bldg_front_window_0_Layer0_0_FILL"/>
</g>
</g>

<g transform="matrix( 1.00067138671875, 0, 0, 1, 147.8,162.3) ">
<g transform="matrix( 1, 0, 0, 1, 0,0) ">
<use filter="url(#Filter_1)" xlink:href="#graphics_bldg_front_window_0_Layer0_0_FILL"/>
</g>
</g>

<g transform="matrix( 1.00067138671875, 0, 0, 1, 47.8,162.3) ">
<g transform="matrix( 1, 0, 0, 1, 0,0) ">
<use filter="url(#Filter_1)" xlink:href="#graphics_bldg_front_window_0_Layer0_0_FILL"/>
</g>
</g>

<g transform="matrix( 1.00067138671875, 0, 0, 1, 247.8,294.6) ">
<g transform="matrix( 1, 0, 0, 1, 0,0) ">
<use filter="url(#Filter_1)" xlink:href="#graphics_bldg_front_window_0_Layer0_0_FILL"/>
</g>
</g>

<g transform="matrix( 1.00067138671875, 0, 0, 1, 147.8,294.6) ">
<g transform="matrix( 1, 0, 0, 1, 0,0) ">
<use filter="url(#Filter_1)" xlink:href="#graphics_bldg_front_window_0_Layer0_0_FILL"/>
</g>
</g>

<g transform="matrix( 1.00067138671875, 0, 0, 1, 47.8,294.6) ">
<g transform="matrix( 1, 0, 0, 1, 0,0) ">
<use filter="url(#Filter_1)" xlink:href="#graphics_bldg_front_window_0_Layer0_0_FILL"/>
</g>
</g>

<g transform="matrix( 1.00067138671875, 0, 0, 1, 247.8,38.3) ">
<g transform="matrix( 1, 0, 0, 1, 0,0) ">
<use filter="url(#Filter_1)" xlink:href="#graphics_bldg_front_window_0_Layer0_0_FILL"/>
</g>
</g>

<g transform="matrix( 1.00067138671875, 0, 0, 1, 147.8,38.3) ">
<g transform="matrix( 1, 0, 0, 1, 0,0) ">
<use filter="url(#Filter_1)" xlink:href="#graphics_bldg_front_window_0_Layer0_0_FILL"/>
</g>
</g>

<g transform="matrix( 1.00067138671875, 0, 0, 1, 47.8,38.3) ">
<g transform="matrix( 1, 0, 0, 1, 0,0) ">
<use filter="url(#Filter_1)" xlink:href="#graphics_bldg_front_window_0_Layer0_0_FILL"/>
</g>
</g>

<g transform="matrix( 1.00067138671875, 0, 0, 1, 245.9,159.9) ">
<g transform="matrix( 1, 0, 0, 1, 0,0) ">
<use xlink:href="#graphics_bldg_front_window_0_Layer0_0_FILL"/>
</g>
</g>

<g transform="matrix( 1.00067138671875, 0, 0, 1, 145.9,159.9) ">
<g transform="matrix( 1, 0, 0, 1, 0,0) ">
<use xlink:href="#graphics_bldg_front_window_0_Layer0_0_FILL"/>
</g>
</g>

<g transform="matrix( 1.00067138671875, 0, 0, 1, 45.9,159.9) ">
<g transform="matrix( 1, 0, 0, 1, 0,0) ">
<use xlink:href="#graphics_bldg_front_window_0_Layer0_0_FILL"/>
</g>
</g>

<g transform="matrix( 1.00067138671875, 0, 0, 1, 245.9,292.2) ">
<g transform="matrix( 1, 0, 0, 1, 0,0) ">
<use xlink:href="#graphics_bldg_front_window_0_Layer0_0_FILL"/>
</g>
</g>

<g transform="matrix( 1.00067138671875, 0, 0, 1, 145.9,292.2) ">
<g transform="matrix( 1, 0, 0, 1, 0,0) ">
<use xlink:href="#graphics_bldg_front_window_0_Layer0_0_FILL"/>
</g>
</g>

<g transform="matrix( 1.00067138671875, 0, 0, 1, 45.9,292.2) ">
<g transform="matrix( 1, 0, 0, 1, 0,0) ">
<use xlink:href="#graphics_bldg_front_window_0_Layer0_0_FILL"/>
</g>
</g>

<g transform="matrix( 1.00067138671875, 0, 0, 1, 245.9,35.9) ">
<g transform="matrix( 1, 0, 0, 1, 0,0) ">
<use xlink:href="#graphics_bldg_front_window_0_Layer0_0_FILL"/>
</g>
</g>

<g transform="matrix( 1.00067138671875, 0, 0, 1, 145.9,35.9) ">
<g transform="matrix( 1, 0, 0, 1, 0,0) ">
<use xlink:href="#graphics_bldg_front_window_0_Layer0_0_FILL"/>
</g>
</g>

<g transform="matrix( 1.00067138671875, 0, 0, 1, 45.9,35.9) ">
<g transform="matrix( 1, 0, 0, 1, 0,0) ">
<use xlink:href="#graphics_bldg_front_window_0_Layer0_0_FILL"/>
</g>
</g>
</g>
</g>

<g transform="matrix( 0.0872650146484375, 0, 0, 0.0872650146484375, 221.55,141.05) ">
<g transform="matrix( 0.9998931884765625, 0, 0, 1, 0,0) ">
<g transform="matrix( 1, 0, 0, 1, 0,0) ">
<use xlink:href="#graphics_office_building_back_0_Layer4_0_FILL"/>
</g>

<g transform="matrix( 1, 0, 0, 1, 0,0) ">
<use xlink:href="#graphics_office_building_back_0_Layer3_0_FILL"/>
</g>

<g transform="matrix( 1, 0, 0, 1, -9.1,0) ">
<use xlink:href="#graphics_office_building_back_0_Layer3_1_FILL"/>
</g>

<g transform="matrix( 1, 0, 0, 1, 0,0) ">
<use xlink:href="#graphics_office_building_back_0_Layer2_0_FILL"/>
</g>

<g transform="matrix( 1, 0, 0, 1, 0,132.25) ">
<use xlink:href="#graphics_office_building_back_0_Layer2_1_FILL"/>
</g>

<g transform="matrix( 1, 0, 0, 1, 0,198.6) ">
<use xlink:href="#graphics_office_building_back_0_Layer2_2_FILL"/>
</g>

<g transform="matrix( 0.9998931884765625, 0, 0, 1, 366.35,192.5) ">
<g transform="matrix( 1, 0, 0, 1, 0,0) ">
<use filter="url(#Filter_1)" xlink:href="#graphics_bldg_side_window_0_Layer1_0_FILL"/>
</g>

<g transform="matrix( 1, 0, 0, 1, 0,0) ">
<use filter="url(#Filter_1)" xlink:href="#graphics_bldg_side_window_0_Layer0_0_FILL"/>
</g>
</g>

<g transform="matrix( 0.9998931884765625, 0, 0, 1, 366.4,324.8) ">
<g transform="matrix( 1, 0, 0, 1, 0,0) ">
<use filter="url(#Filter_1)" xlink:href="#graphics_bldg_side_window_0_Layer1_0_FILL"/>
</g>

<g transform="matrix( 1, 0, 0, 1, 0,0) ">
<use filter="url(#Filter_1)" xlink:href="#graphics_bldg_side_window_0_Layer0_0_FILL"/>
</g>
</g>

<g transform="matrix( 0.9998931884765625, 0, 0, 1, 364.55,190.4) ">
<g transform="matrix( 1, 0, 0, 1, 0,0) ">
<use xlink:href="#graphics_bldg_side_window_0_Layer1_0_FILL"/>
</g>

<g transform="matrix( 1, 0, 0, 1, 0,0) ">
<use xlink:href="#graphics_bldg_side_window_0_Layer0_0_FILL"/>
</g>
</g>

<g transform="matrix( 0.9998931884765625, 0, 0, 1, 364.6,322.7) ">
<g transform="matrix( 1, 0, 0, 1, 0,0) ">
<use xlink:href="#graphics_bldg_side_window_0_Layer1_0_FILL"/>
</g>

<g transform="matrix( 1, 0, 0, 1, 0,0) ">
<use xlink:href="#graphics_bldg_side_window_0_Layer0_0_FILL"/>
</g>
</g>
</g>

<g transform="matrix( 0.9998931884765625, 0, 0, 1, 355.35,403) ">
<g transform="matrix( 1, 0, 0, 1, 0,0) ">
<use xlink:href="#graphics_office_building_stair_rail_0_Layer0_0_FILL"/>
</g>
</g>

<g transform="matrix( 0.9998931884765625, 0, 0, 1, 0,30.5) ">
<g transform="matrix( 1, 0, 0, 1, 0,0) ">
<use xlink:href="#graphics_office_bldg_front_0_Layer4_0_FILL"/>
</g>

<g transform="matrix( 1, 0, 0, 1, 0,0) ">
<use xlink:href="#graphics_office_bldg_front_0_Layer3_0_FILL"/>
</g>

<g transform="matrix( 1, 0, 0, 1, 0,0) ">
<use xlink:href="#graphics_office_bldg_front_0_Layer2_0_FILL"/>
</g>

<g transform="matrix( 1, 0, 0, 1, 0,-13.25) ">
<use xlink:href="#graphics_office_bldg_front_0_Layer2_1_FILL"/>
</g>

<g transform="matrix( 1.00067138671875, 0, 0, 1, 247.8,162.3) ">
<g transform="matrix( 1, 0, 0, 1, 0,0) ">
<use filter="url(#Filter_1)" xlink:href="#graphics_bldg_front_window_0_Layer0_0_FILL"/>
</g>
</g>

<g transform="matrix( 1.00067138671875, 0, 0, 1, 147.8,162.3) ">
<g transform="matrix( 1, 0, 0, 1, 0,0) ">
<use filter="url(#Filter_1)" xlink:href="#graphics_bldg_front_window_0_Layer0_0_FILL"/>
</g>
</g>

<g transform="matrix( 1.00067138671875, 0, 0, 1, 47.8,162.3) ">
<g transform="matrix( 1, 0, 0, 1, 0,0) ">
<use filter="url(#Filter_1)" xlink:href="#graphics_bldg_front_window_0_Layer0_0_FILL"/>
</g>
</g>

<g transform="matrix( 1.00067138671875, 0, 0, 1, 247.8,294.6) ">
<g transform="matrix( 1, 0, 0, 1, 0,0) ">
<use filter="url(#Filter_1)" xlink:href="#graphics_bldg_front_window_0_Layer0_0_FILL"/>
</g>
</g>

<g transform="matrix( 1.00067138671875, 0, 0, 1, 147.8,294.6) ">
<g transform="matrix( 1, 0, 0, 1, 0,0) ">
<use filter="url(#Filter_1)" xlink:href="#graphics_bldg_front_window_0_Layer0_0_FILL"/>
</g>
</g>

<g transform="matrix( 1.00067138671875, 0, 0, 1, 47.8,294.6) ">
<g transform="matrix( 1, 0, 0, 1, 0,0) ">
<use filter="url(#Filter_1)" xlink:href="#graphics_bldg_front_window_0_Layer0_0_FILL"/>
</g>
</g>

<g transform="matrix( 1.00067138671875, 0, 0, 1, 247.8,38.3) ">
<g transform="matrix( 1, 0, 0, 1, 0,0) ">
<use filter="url(#Filter_1)" xlink:href="#graphics_bldg_front_window_0_Layer0_0_FILL"/>
</g>
</g>

<g transform="matrix( 1.00067138671875, 0, 0, 1, 147.8,38.3) ">
<g transform="matrix( 1, 0, 0, 1, 0,0) ">
<use filter="url(#Filter_1)" xlink:href="#graphics_bldg_front_window_0_Layer0_0_FILL"/>
</g>
</g>

<g transform="matrix( 1.00067138671875, 0, 0, 1, 47.8,38.3) ">
<g transform="matrix( 1, 0, 0, 1, 0,0) ">
<use filter="url(#Filter_1)" xlink:href="#graphics_bldg_front_window_0_Layer0_0_FILL"/>
</g>
</g>

<g transform="matrix( 1.00067138671875, 0, 0, 1, 245.9,159.9) ">
<g transform="matrix( 1, 0, 0, 1, 0,0) ">
<use xlink:href="#graphics_bldg_front_window_0_Layer0_0_FILL"/>
</g>
</g>

<g transform="matrix( 1.00067138671875, 0, 0, 1, 145.9,159.9) ">
<g transform="matrix( 1, 0, 0, 1, 0,0) ">
<use xlink:href="#graphics_bldg_front_window_0_Layer0_0_FILL"/>
</g>
</g>

<g transform="matrix( 1.00067138671875, 0, 0, 1, 45.9,159.9) ">
<g transform="matrix( 1, 0, 0, 1, 0,0) ">
<use xlink:href="#graphics_bldg_front_window_0_Layer0_0_FILL"/>
</g>
</g>

<g transform="matrix( 1.00067138671875, 0, 0, 1, 245.9,292.2) ">
<g transform="matrix( 1, 0, 0, 1, 0,0) ">
<use xlink:href="#graphics_bldg_front_window_0_Layer0_0_FILL"/>
</g>
</g>

<g transform="matrix( 1.00067138671875, 0, 0, 1, 145.9,292.2) ">
<g transform="matrix( 1, 0, 0, 1, 0,0) ">
<use xlink:href="#graphics_bldg_front_window_0_Layer0_0_FILL"/>
</g>
</g>

<g transform="matrix( 1.00067138671875, 0, 0, 1, 45.9,292.2) ">
<g transform="matrix( 1, 0, 0, 1, 0,0) ">
<use xlink:href="#graphics_bldg_front_window_0_Layer0_0_FILL"/>
</g>
</g>

<g transform="matrix( 1.00067138671875, 0, 0, 1, 245.9,35.9) ">
<g transform="matrix( 1, 0, 0, 1, 0,0) ">
<use xlink:href="#graphics_bldg_front_window_0_Layer0_0_FILL"/>
</g>
</g>

<g transform="matrix( 1.00067138671875, 0, 0, 1, 145.9,35.9) ">
<g transform="matrix( 1, 0, 0, 1, 0,0) ">
<use xlink:href="#graphics_bldg_front_window_0_Layer0_0_FILL"/>
</g>
</g>

<g transform="matrix( 1.00067138671875, 0, 0, 1, 45.9,35.9) ">
<g transform="matrix( 1, 0, 0, 1, 0,0) ">
<use xlink:href="#graphics_bldg_front_window_0_Layer0_0_FILL"/>
</g>
</g>
</g>
</g>

<g transform="matrix( 0.0922088623046875, 0, 0, 0.0922088623046875, 389.1,138.75) ">
<g transform="matrix( 0.9998931884765625, 0, 0, 1, 0,0) ">
<g transform="matrix( 1, 0, 0, 1, 0,0) ">
<use xlink:href="#graphics_office_building_back_0_Layer4_0_FILL"/>
</g>

<g transform="matrix( 1, 0, 0, 1, 0,0) ">
<use xlink:href="#graphics_office_building_back_0_Layer3_0_FILL"/>
</g>

<g transform="matrix( 1, 0, 0, 1, -9.1,0) ">
<use xlink:href="#graphics_office_building_back_0_Layer3_1_FILL"/>
</g>

<g transform="matrix( 1, 0, 0, 1, 0,0) ">
<use xlink:href="#graphics_office_building_back_0_Layer2_0_FILL"/>
</g>

<g transform="matrix( 1, 0, 0, 1, 0,132.25) ">
<use xlink:href="#graphics_office_building_back_0_Layer2_1_FILL"/>
</g>

<g transform="matrix( 1, 0, 0, 1, 0,198.6) ">
<use xlink:href="#graphics_office_building_back_0_Layer2_2_FILL"/>
</g>

<g transform="matrix( 0.9998931884765625, 0, 0, 1, 366.35,192.5) ">
<g transform="matrix( 1, 0, 0, 1, 0,0) ">
<use filter="url(#Filter_1)" xlink:href="#graphics_bldg_side_window_0_Layer1_0_FILL"/>
</g>

<g transform="matrix( 1, 0, 0, 1, 0,0) ">
<use filter="url(#Filter_1)" xlink:href="#graphics_bldg_side_window_0_Layer0_0_FILL"/>
</g>
</g>

<g transform="matrix( 0.9998931884765625, 0, 0, 1, 366.4,324.8) ">
<g transform="matrix( 1, 0, 0, 1, 0,0) ">
<use filter="url(#Filter_1)" xlink:href="#graphics_bldg_side_window_0_Layer1_0_FILL"/>
</g>

<g transform="matrix( 1, 0, 0, 1, 0,0) ">
<use filter="url(#Filter_1)" xlink:href="#graphics_bldg_side_window_0_Layer0_0_FILL"/>
</g>
</g>

<g transform="matrix( 0.9998931884765625, 0, 0, 1, 364.55,190.4) ">
<g transform="matrix( 1, 0, 0, 1, 0,0) ">
<use xlink:href="#graphics_bldg_side_window_0_Layer1_0_FILL"/>
</g>

<g transform="matrix( 1, 0, 0, 1, 0,0) ">
<use xlink:href="#graphics_bldg_side_window_0_Layer0_0_FILL"/>
</g>
</g>

<g transform="matrix( 0.9998931884765625, 0, 0, 1, 364.6,322.7) ">
<g transform="matrix( 1, 0, 0, 1, 0,0) ">
<use xlink:href="#graphics_bldg_side_window_0_Layer1_0_FILL"/>
</g>

<g transform="matrix( 1, 0, 0, 1, 0,0) ">
<use xlink:href="#graphics_bldg_side_window_0_Layer0_0_FILL"/>
</g>
</g>
</g>

<g transform="matrix( 0.9998931884765625, 0, 0, 1, 355.35,403) ">
<g transform="matrix( 1, 0, 0, 1, 0,0) ">
<use xlink:href="#graphics_office_building_stair_rail_0_Layer0_0_FILL"/>
</g>
</g>

<g transform="matrix( 0.9998931884765625, 0, 0, 1, 0,30.5) ">
<g transform="matrix( 1, 0, 0, 1, 0,0) ">
<use xlink:href="#graphics_office_bldg_front_0_Layer4_0_FILL"/>
</g>

<g transform="matrix( 1, 0, 0, 1, 0,0) ">
<use xlink:href="#graphics_office_bldg_front_0_Layer3_0_FILL"/>
</g>

<g transform="matrix( 1, 0, 0, 1, 0,0) ">
<use xlink:href="#graphics_office_bldg_front_0_Layer2_0_FILL"/>
</g>

<g transform="matrix( 1, 0, 0, 1, 0,-13.25) ">
<use xlink:href="#graphics_office_bldg_front_0_Layer2_1_FILL"/>
</g>

<g transform="matrix( 1.00067138671875, 0, 0, 1, 247.8,162.3) ">
<g transform="matrix( 1, 0, 0, 1, 0,0) ">
<use filter="url(#Filter_1)" xlink:href="#graphics_bldg_front_window_0_Layer0_0_FILL"/>
</g>
</g>

<g transform="matrix( 1.00067138671875, 0, 0, 1, 147.8,162.3) ">
<g transform="matrix( 1, 0, 0, 1, 0,0) ">
<use filter="url(#Filter_1)" xlink:href="#graphics_bldg_front_window_0_Layer0_0_FILL"/>
</g>
</g>

<g transform="matrix( 1.00067138671875, 0, 0, 1, 47.8,162.3) ">
<g transform="matrix( 1, 0, 0, 1, 0,0) ">
<use filter="url(#Filter_1)" xlink:href="#graphics_bldg_front_window_0_Layer0_0_FILL"/>
</g>
</g>

<g transform="matrix( 1.00067138671875, 0, 0, 1, 247.8,294.6) ">
<g transform="matrix( 1, 0, 0, 1, 0,0) ">
<use filter="url(#Filter_1)" xlink:href="#graphics_bldg_front_window_0_Layer0_0_FILL"/>
</g>
</g>

<g transform="matrix( 1.00067138671875, 0, 0, 1, 147.8,294.6) ">
<g transform="matrix( 1, 0, 0, 1, 0,0) ">
<use filter="url(#Filter_1)" xlink:href="#graphics_bldg_front_window_0_Layer0_0_FILL"/>
</g>
</g>

<g transform="matrix( 1.00067138671875, 0, 0, 1, 47.8,294.6) ">
<g transform="matrix( 1, 0, 0, 1, 0,0) ">
<use filter="url(#Filter_1)" xlink:href="#graphics_bldg_front_window_0_Layer0_0_FILL"/>
</g>
</g>

<g transform="matrix( 1.00067138671875, 0, 0, 1, 247.8,38.3) ">
<g transform="matrix( 1, 0, 0, 1, 0,0) ">
<use filter="url(#Filter_1)" xlink:href="#graphics_bldg_front_window_0_Layer0_0_FILL"/>
</g>
</g>

<g transform="matrix( 1.00067138671875, 0, 0, 1, 147.8,38.3) ">
<g transform="matrix( 1, 0, 0, 1, 0,0) ">
<use filter="url(#Filter_1)" xlink:href="#graphics_bldg_front_window_0_Layer0_0_FILL"/>
</g>
</g>

<g transform="matrix( 1.00067138671875, 0, 0, 1, 47.8,38.3) ">
<g transform="matrix( 1, 0, 0, 1, 0,0) ">
<use filter="url(#Filter_1)" xlink:href="#graphics_bldg_front_window_0_Layer0_0_FILL"/>
</g>
</g>

<g transform="matrix( 1.00067138671875, 0, 0, 1, 245.9,159.9) ">
<g transform="matrix( 1, 0, 0, 1, 0,0) ">
<use xlink:href="#graphics_bldg_front_window_0_Layer0_0_FILL"/>
</g>
</g>

<g transform="matrix( 1.00067138671875, 0, 0, 1, 145.9,159.9) ">
<g transform="matrix( 1, 0, 0, 1, 0,0) ">
<use xlink:href="#graphics_bldg_front_window_0_Layer0_0_FILL"/>
</g>
</g>

<g transform="matrix( 1.00067138671875, 0, 0, 1, 45.9,159.9) ">
<g transform="matrix( 1, 0, 0, 1, 0,0) ">
<use xlink:href="#graphics_bldg_front_window_0_Layer0_0_FILL"/>
</g>
</g>

<g transform="matrix( 1.00067138671875, 0, 0, 1, 245.9,292.2) ">
<g transform="matrix( 1, 0, 0, 1, 0,0) ">
<use xlink:href="#graphics_bldg_front_window_0_Layer0_0_FILL"/>
</g>
</g>

<g transform="matrix( 1.00067138671875, 0, 0, 1, 145.9,292.2) ">
<g transform="matrix( 1, 0, 0, 1, 0,0) ">
<use xlink:href="#graphics_bldg_front_window_0_Layer0_0_FILL"/>
</g>
</g>

<g transform="matrix( 1.00067138671875, 0, 0, 1, 45.9,292.2) ">
<g transform="matrix( 1, 0, 0, 1, 0,0) ">
<use xlink:href="#graphics_bldg_front_window_0_Layer0_0_FILL"/>
</g>
</g>

<g transform="matrix( 1.00067138671875, 0, 0, 1, 245.9,35.9) ">
<g transform="matrix( 1, 0, 0, 1, 0,0) ">
<use xlink:href="#graphics_bldg_front_window_0_Layer0_0_FILL"/>
</g>
</g>

<g transform="matrix( 1.00067138671875, 0, 0, 1, 145.9,35.9) ">
<g transform="matrix( 1, 0, 0, 1, 0,0) ">
<use xlink:href="#graphics_bldg_front_window_0_Layer0_0_FILL"/>
</g>
</g>

<g transform="matrix( 1.00067138671875, 0, 0, 1, 45.9,35.9) ">
<g transform="matrix( 1, 0, 0, 1, 0,0) ">
<use xlink:href="#graphics_bldg_front_window_0_Layer0_0_FILL"/>
</g>
</g>
</g>
</g>
</g>
</svg>
